<svg xmlns="http://www.w3.org/2000/svg" xmlns:xlink="http://www.w3.org/1999/xlink" fill="none" version="1.1" width="320" height="320" viewBox="0 0 320 320"><defs><clipPath id="master_svg0_122_1266"><rect x="0" y="0" width="320" height="320" rx="0"/></clipPath></defs><g clip-path="url(#master_svg0_122_1266)"><g><path d="M106.3582,288.845C142.671,283.955,185.998,261.007,223.368,223.64C232.201,214.807,240.228,205.64,247.401,196.315C238.151,267.185,202.408,320,159.728,320C139.748,320,121.291,308.425,106.3582,288.845ZM72.0582,123.685C81.3057,52.815,117.046,0,159.728,0C179.708,0,198.166,11.575,213.098,31.155C176.786,36.045,133.458,58.9925,96.0882,96.36C87.4952,104.939,79.4675,114.067,72.0557,123.685L72.0582,123.685ZM21.45816,178.203C43.8507,207.205,85.3882,233.255,136.433,246.933C148.16,250.085,160.079,252.473,172.116,254.082C106.1132,281.508,42.5032,276.963,21.16566,240C11.17566,222.7,11.968160000000001,200.925,21.46066,178.203L21.45816,178.203ZM147.341,65.9175C213.343,38.4925,276.953,43.0375,298.291,80C308.281,97.3,307.488,119.075,297.996,141.798C275.606,112.795,234.071,86.745,183.021,73.0675C171.294,69.9155,159.376,67.5272,147.341,65.9175ZM74.82820000000001,49.3575C60.9082,83.25,59.1157,132.248,72.7957,183.293C75.929,195.024,79.8196,206.54,84.4432,217.767C27.693199999999997,174.32,-0.17689999999999984,116.963,21.16315,80C31.1532,62.7,50.4057,52.5,74.82820000000001,49.3575ZM235.013,102.233C291.763,145.68,319.633,203.038,298.293,240C288.303,257.3,269.051,267.5,244.628,270.643C258.548,236.75,260.341,187.753,246.661,136.708C243.527,124.976,239.637,113.46,235.013,102.233ZM159.728,225C125.211,225,97.2282,197.018,97.2282,162.5C97.2282,127.983,125.211,100,159.728,100C194.246,100,222.228,127.983,222.228,162.5C222.228,197.018,194.246,225,159.728,225ZM159.728,192.5C176.296,192.5,189.728,179.068,189.728,162.5C189.728,145.933,176.296,132.5,159.728,132.5C143.161,132.5,129.728,145.933,129.728,162.5C129.728,179.068,143.161,192.5,159.728,192.5Z" fill="#FA5151" fill-opacity="1"/></g></g></svg>