<svg xmlns="http://www.w3.org/2000/svg" xmlns:xlink="http://www.w3.org/1999/xlink" fill="none" version="1.1" width="121.7506103515625" height="120.07872009277344" viewBox="0 0 121.7506103515625 120.07872009277344"><defs><linearGradient x1="0.573619544506073" y1="0.5669642090797424" x2="-0.1503068059682846" y2="1.3124998807907104" id="master_svg0__87"><stop offset="0%" stop-color="#FF759F" stop-opacity="1"/><stop offset="100%" stop-color="#FF196E" stop-opacity="1"/></linearGradient><filter id="master_svg1_0_640" filterUnits="objectBoundingBox" color-interpolation-filters="sRGB" x="-34" y="-34" width="116.90859985351562" height="114.5442008972168"><feFlood flood-opacity="0" result="BackgroundImageFix"/><feBlend mode="normal" in="SourceGraphic" in2="BackgroundImageFix" result="shape"/><feGaussianBlur stdDeviation="8.5" result="effect1_foregroundBlur"/></filter><filter id="master_svg2_0_642" filterUnits="objectBoundingBox" color-interpolation-filters="sRGB" x="0" y="0" width="73.98860931396484" height="73.98860931396484"><feFlood flood-opacity="0" result="BackgroundImageFix"/><feBlend mode="normal" in="SourceGraphic" in2="BackgroundImageFix" result="shape"/><feGaussianBlur in="BackgroundImage" stdDeviation="12"/><feComposite in2="SourceAlpha" operator="in" result="effect1_foregroundBlur"/><feBlend mode="normal" in="SourceGraphic" in2="effect1_foregroundBlur" result="shape"/></filter><linearGradient x1="0.15918369591236115" y1="0.11650128662586212" x2="0.795918345451355" y2="0.907483696937561" id="master_svg3__17"><stop offset="0%" stop-color="#FFFFFF" stop-opacity="0.25"/><stop offset="100%" stop-color="#FFFFFF" stop-opacity="0"/></linearGradient><filter id="master_svg4_0_644" filterUnits="objectBoundingBox" color-interpolation-filters="sRGB" x="-15" y="-15" width="40" height="40"><feFlood flood-opacity="0" result="BackgroundImageFix"/><feColorMatrix in="SourceAlpha" type="matrix" values="0 0 0 0 0 0 0 0 0 0 0 0 0 0 0 0 0 0 127 0"/><feOffset dy="5" dx="5"/><feGaussianBlur stdDeviation="5"/><feColorMatrix type="matrix" values="0 0 0 0 0.5773564577102661 0 0 0 0 0.359375 0 0 0 0 0.9375 0 0 0 0.5 0"/><feBlend mode="normal" in2="BackgroundImageFix" result="effect1_dropShadow"/><feBlend mode="normal" in="SourceGraphic" in2="effect1_dropShadow" result="shape"/><feGaussianBlur in="BackgroundImage" stdDeviation="7.5"/><feComposite in2="SourceAlpha" operator="in" result="effect2_foregroundBlur"/><feBlend mode="normal" in="SourceGraphic" in2="effect2_foregroundBlur" result="shape"/></filter><linearGradient x1="0.15918369591236115" y1="0.11650128662586212" x2="0.795918345451355" y2="0.907483696937561" id="master_svg5__88"><stop offset="0%" stop-color="#FFFFFF" stop-opacity="0"/><stop offset="100%" stop-color="#FFFFFF" stop-opacity="0"/></linearGradient><filter id="master_svg6_0_645" filterUnits="objectBoundingBox" color-interpolation-filters="sRGB" x="0" y="0" width="10.871800422668457" height="10.871800422668457"><feFlood flood-opacity="0" result="BackgroundImageFix"/><feBlend mode="normal" in="SourceGraphic" in2="BackgroundImageFix" result="shape"/><feGaussianBlur in="BackgroundImage" stdDeviation="7.5"/><feComposite in2="SourceAlpha" operator="in" result="effect1_foregroundBlur"/><feBlend mode="normal" in="SourceGraphic" in2="effect1_foregroundBlur" result="shape"/></filter><linearGradient x1="0.573619544506073" y1="0.5669642090797424" x2="-0.1503068059682846" y2="1.3124998807907104" id="master_svg7__24"><stop offset="0%" stop-color="#FF759F" stop-opacity="1"/><stop offset="100%" stop-color="#FF196E" stop-opacity="1"/></linearGradient><filter id="master_svg8_0_646" filterUnits="objectBoundingBox" color-interpolation-filters="sRGB" x="-15" y="-15" width="79.36463165283203" height="63.76530075073242"><feFlood flood-opacity="0" result="BackgroundImageFix"/><feColorMatrix in="SourceAlpha" type="matrix" values="0 0 0 0 0 0 0 0 0 0 0 0 0 0 0 0 0 0 127 0"/><feOffset dy="5" dx="5"/><feGaussianBlur stdDeviation="5"/><feColorMatrix type="matrix" values="0 0 0 0 1 0 0 0 0 0.32156863808631897 0 0 0 0 0.5490196347236633 0 0 0 0.5 0"/><feBlend mode="normal" in2="BackgroundImageFix" result="effect1_dropShadow"/><feBlend mode="normal" in="SourceGraphic" in2="effect1_dropShadow" result="shape"/><feGaussianBlur in="BackgroundImage" stdDeviation="7.5"/><feComposite in2="SourceAlpha" operator="in" result="effect2_foregroundBlur"/><feBlend mode="normal" in="SourceGraphic" in2="effect2_foregroundBlur" result="shape"/></filter><linearGradient x1="0.9291008114814758" y1="0.18057993054389954" x2="-0.1481175422668457" y2="1.3421075344085693" id="master_svg9__18"><stop offset="0%" stop-color="#FFFFFF" stop-opacity="1"/><stop offset="100%" stop-color="#FFFFFF" stop-opacity="0.20000000298023224"/></linearGradient><linearGradient x1="0.15918369591236115" y1="0.11650128662586212" x2="0.795918345451355" y2="0.907483696937561" id="master_svga__17"><stop offset="0%" stop-color="#FFFFFF" stop-opacity="0.25"/><stop offset="100%" stop-color="#FFFFFF" stop-opacity="0"/></linearGradient></defs><g><g><g transform="matrix(0.9659258127212524,-0.2588190734386444,0.2588190734386444,0.9659258127212524,-8.23873045424665,5.182511010231565)"><g><path d="M69.85947138671875,33.880937576293945C69.85947138671875,33.880937576293945,35.29527138671875,33.880937576293945,35.29527138671875,33.880937576293945C22.69963138671875,33.880937576293945,15.56317138671875,41.016727576293945,15.56317138671875,53.611237576293945C15.56317138671875,53.611237576293945,15.56317138671875,88.13923757629394,15.56317138671875,88.13923757629394C15.56317138671875,100.73373757629395,22.69963138671875,107.86953757629395,35.29527138671875,107.86953757629395C35.29527138671875,107.86953757629395,69.85947138671875,107.86953757629395,69.85947138671875,107.86953757629395C82.45517138671875,107.86953757629395,89.55877138671875,100.73373757629395,89.55877138671875,88.13923757629394C89.55877138671875,88.13923757629394,89.55877138671875,53.611237576293945,89.55877138671875,53.611237576293945C89.55877138671875,41.016727576293945,82.45517138671875,33.880937576293945,69.85947138671875,33.880937576293945C69.85947138671875,33.880937576293945,69.85947138671875,33.880937576293945,69.85947138671875,33.880937576293945Z" fill="url(#master_svg0__87)" fill-opacity="1"/></g><g style="opacity:0.5;" filter="url(#master_svg1_0_640)"><path d="M63.99472092437744,47.6035680770874C63.99472092437744,47.6035680770874,41.14902092437744,47.6035680770874,41.14902092437744,47.6035680770874C32.82368092437744,47.6035680770874,28.10672092437744,52.0924980770874,28.10672092437744,60.0153680770874C28.10672092437744,60.0153680770874,28.10672092437744,81.73596807708739,28.10672092437744,81.73596807708739C28.10672092437744,89.6588680770874,32.82368092437744,94.14776807708739,41.14902092437744,94.14776807708739C41.14902092437744,94.14776807708739,63.99472092437744,94.14776807708739,63.99472092437744,94.14776807708739C72.32002092437745,94.14776807708739,77.01532092437745,89.6588680770874,77.01532092437745,81.73596807708739C77.01532092437745,81.73596807708739,77.01532092437745,60.0153680770874,77.01532092437745,60.0153680770874C77.01532092437745,52.0924980770874,72.32002092437745,47.6035680770874,63.99472092437744,47.6035680770874C63.99472092437744,47.6035680770874,63.99472092437744,47.6035680770874,63.99472092437744,47.6035680770874Z" fill="#E31352" fill-opacity="1"/></g></g><g><g filter="url(#master_svg2_0_642)"><path d="M91.26336201171875,37.378984451293945C91.26336201171875,37.378984451293945,59.18936201171875,37.378984451293945,59.18936201171875,37.378984451293945C46.64826201171875,37.378984451293945,38.21356201171875,46.183624451293944,38.21356201171875,59.27958445129394C38.21356201171875,59.27958445129394,38.21356201171875,89.50398445129395,38.21356201171875,89.50398445129395C38.21356201171875,102.56298445129394,46.64826201171875,111.36758445129395,59.18936201171875,111.36758445129395C59.18936201171875,111.36758445129395,91.26336201171875,111.36758445129395,91.26336201171875,111.36758445129395C103.80446201171875,111.36758445129395,112.20216201171876,102.56298445129394,112.20216201171876,89.50398445129395C112.20216201171876,89.50398445129395,112.20216201171876,59.27958445129394,112.20216201171876,59.27958445129394C112.20216201171876,46.183624451293944,103.80446201171875,37.378984451293945,91.26336201171875,37.378984451293945C91.26336201171875,37.378984451293945,91.26336201171875,37.378984451293945,91.26336201171875,37.378984451293945Z" fill="#FF749F" fill-opacity="0.3499999940395355"/><path d="M37.21356201171875,59.27958445129394L37.21356201171875,89.50398445129395Q37.21356201171875,94.52478445129395,38.78978601171875,98.77698445129394Q40.34220201171875,102.96498445129394,43.27680201171875,106.02508445129395Q46.217022011718754,109.09098445129395,50.247262011718746,110.71528445129394Q54.34696201171875,112.36758445129395,59.18936201171875,112.36758445129395L91.26336201171875,112.36758445129395Q96.10566201171875,112.36758445129395,100.20006201171876,110.71518445129395Q104.22476201171875,109.09088445129395,107.15826201171875,106.02418445129395Q110.08486201171876,102.96478445129395,111.63216201171875,98.77598445129394Q113.20216201171876,94.52548445129395,113.20216201171876,89.50398445129395L113.20216201171876,59.27958445129394Q113.20216201171876,54.24508445129395,111.63236201171875,49.986884451293946Q110.08536201171874,45.79070445129395,107.15876201171875,42.72749445129394Q104.22556201171875,39.65753445129395,100.20026201171875,38.03208045129394Q96.10646201171875,36.37898645129395,91.26336201171875,36.37898645129395L59.18936201171875,36.378984451293945Q54.34606201171875,36.378984451293945,50.24716201171875,38.031902451293945Q46.216102011718746,39.65744445129395,43.27638201171875,42.726584451293945Q40.34166201171875,45.79050445129394,38.78956601171875,49.985784451293945Q37.21356201171875,54.24568445129395,37.21356201171875,59.27958445129394ZM59.18936201171875,37.378984451293945L91.26336201171875,37.378984451293945C103.80446201171875,37.378984451293945,112.20216201171876,46.183624451293944,112.20216201171876,59.27958445129394L112.20216201171876,89.50398445129395C112.20216201171876,102.56298445129394,103.80446201171875,111.36758445129395,91.26336201171875,111.36758445129395L59.18936201171875,111.36758445129395C46.64826201171875,111.36758445129395,38.21356201171875,102.56298445129394,38.21356201171875,89.50398445129395L38.21356201171875,59.27958445129394C38.21356201171875,46.183624451293944,46.64826201171875,37.378984451293945,59.18936201171875,37.378984451293945Z" fill-rule="evenodd" fill="url(#master_svg3__17)" fill-opacity="1"/></g><g filter="url(#master_svg4_0_644)"><path d="" fill="url(#master_svg5__88)" fill-opacity="1"/></g><g filter="url(#master_svg6_0_645)"><path d="M116.12700107421875,31.943437576293945C113.12483107421875,31.943437576293945,110.69110107421875,34.37716757629394,110.69110107421875,37.37933757629395C110.69110107421875,40.381497576293945,113.12483107421875,42.815237576293946,116.12700107421875,42.815237576293946C119.12916107421876,42.815237576293946,121.56290107421876,40.381497576293945,121.56290107421876,37.37933757629395C121.56290107421876,35.93764757629395,120.99020107421875,34.555007576293946,119.97076107421876,33.535577576293946C118.95133107421876,32.51614657629395,117.56869107421875,31.943437576293945,116.12700107421875,31.943437576293945C116.12700107421875,31.943437576293945,116.12700107421875,31.943437576293945,116.12700107421875,31.943437576293945Z" fill="url(#master_svg7__24)" fill-opacity="1"/></g><g filter="url(#master_svg8_0_646)"><path d="M94.56307138671875,67.82170320129394C94.56307138671875,67.82170320129394,83.99067138671874,81.46450320129395,83.99067138671874,81.46450320129395C83.54587138671874,82.05740320129394,82.87867138671875,82.44430320129395,82.14247138671875,82.53620320129394C81.40627138671874,82.62810320129395,80.66427138671875,82.41710320129394,80.08697138671874,81.95170320129395C80.08697138671874,81.95170320129395,69.93747138671876,73.99340320129394,69.93747138671876,73.99340320129394C69.93747138671876,73.99340320129394,60.79647138671875,85.81720320129395,60.79647138671875,85.81720320129395C60.13451138671875,86.86830320129394,58.84528138671875,87.34060320129394,57.65959138671875,86.96630320129395C56.47391138671875,86.59210320129395,55.69083018671875,85.46560320129394,55.75425968671875,84.22550320129395C55.75425968671875,84.22550320129395,55.75425968671875,84.22550320129395,55.75425968671875,84.22550320129395C55.74877491671875,83.61190320129394,55.95561038671875,83.01530320129395,56.33980738671875,82.53640320129395C56.33980738671875,82.53640320129395,67.27007138671875,68.43887320129394,67.27007138671875,68.43887320129394C67.70947138671875,67.85064320129395,68.36777138671874,67.46398320129394,69.09617138671875,67.36618320129395C69.82457138671874,67.26839320129395,70.56167138671876,67.46771320129395,71.14117138671875,67.91915320129395C71.14117138671875,67.91915320129395,81.29067138671874,75.90990320129394,81.29067138671874,75.90990320129394C81.29067138671874,75.90990320129394,90.20397138671875,64.44349320129395,90.20397138671875,64.44349320129395C90.63247138671875,63.852296201293946,91.28277138671875,63.45983320129395,92.00617138671875,63.35576660129394C92.72957138671876,63.25169960129394,93.46427138671875,63.44491920129394,94.04257138671875,63.89128120129394C95.23717138671876,64.82558320129395,95.46817138671875,66.54053320129394,94.56307138671875,67.75673320129394C94.56307138671875,67.75673320129394,94.56307138671875,67.82170320129394,94.56307138671875,67.82170320129394C94.56307138671875,67.82170320129394,94.56307138671875,67.82170320129394,94.56307138671875,67.82170320129394Z" fill="url(#master_svg9__18)" fill-opacity="1"/><path d="M80.08697138671874,81.95170320129395L70.25227138671875,74.24020320129395L69.93747138671876,73.99340320129394L69.69277138671875,74.30990320129395L60.79647138671875,85.81720320129395C60.13451138671875,86.86830320129394,58.84528138671875,87.34060320129394,57.65959138671875,86.96630320129395C56.47391138671875,86.59210320129395,55.69083018671875,85.46560320129394,55.75425968671875,84.22550320129395C55.74877491671875,83.61190320129394,55.95561038671875,83.01530320129395,56.33980738671875,82.53640320129395L67.27007138671875,68.43887320129394C67.70947138671875,67.85064320129395,68.36777138671874,67.46398320129394,69.09617138671875,67.36618320129395C69.82457138671874,67.26839320129395,70.56167138671876,67.46771320129395,71.14117138671875,67.91915320129395L80.97637138671875,75.66250320129394L81.29067138671874,75.90990320129394L81.53617138671875,75.59410320129395L90.20397138671875,64.44349320129395C90.63247138671875,63.852296201293946,91.28277138671875,63.45983320129395,92.00617138671875,63.35576660129394C92.72957138671876,63.25169960129394,93.46427138671875,63.44491920129394,94.04257138671875,63.89128120129394C95.23717138671876,64.82558320129395,95.46817138671875,66.54053320129394,94.56307138671875,67.75673320129394L94.56307138671875,67.82170320129394L83.99067138671874,81.46450320129395C83.54587138671874,82.05740320129394,82.87867138671875,82.44430320129395,82.14247138671875,82.53620320129394C81.40627138671874,82.62810320129395,80.66427138671875,82.41710320129394,80.08697138671874,81.95170320129395ZM83.67447138671875,81.21950320129395L94.16307138671874,67.68486320129395L94.16307138671874,67.62422320129394L94.24217138671875,67.51792320129394Q94.82367138671876,66.73649320129394,94.69377138671875,65.77168320129394Q94.56387138671874,64.80678320129394,93.79817138671875,64.20792920129395Q93.02737138671876,63.61297820129395,92.06317138671875,63.751691201293944Q91.09887138671874,63.89040720129395,90.52787138671874,64.67824320129395L90.52387138671875,64.68368320129395L81.35947138671875,76.47320320129394L70.89537138671875,68.23470320129394Q70.12177138671875,67.63208320129395,69.14937138671876,67.76262320129395Q68.17697138671875,67.89319320129394,67.58617138671875,68.68396320129395L56.65181238671875,82.78670320129395Q56.14703938671875,83.41590320129394,56.15424338671875,84.22190320129394L56.15435138671875,84.23390320129394L56.15373738671875,84.24590320129394Q56.11314738671875,85.03950320129394,56.56694638671875,85.69230320129395Q57.02087138671875,86.34530320129394,57.78001138671875,86.58490320129394Q58.53927138671875,86.82450320129395,59.28684138671875,86.55070320129394Q60.03425138671875,86.27690320129395,60.45800138671875,85.60400320129395L60.46825138671875,85.58780320129395L69.86737138671874,73.43010320129395L80.33797138671875,81.64030320129395Q81.10927138671875,82.26210320129394,82.09297138671874,82.13930320129394Q83.07647138671875,82.01650320129394,83.67447138671875,81.21950320129395Z" fill-rule="evenodd" fill="url(#master_svga__17)" fill-opacity="1"/></g></g></g></g></svg>