<svg xmlns="http://www.w3.org/2000/svg" xmlns:xlink="http://www.w3.org/1999/xlink" fill="none" version="1.1" width="125.69305419921875" height="123.2845458984375" viewBox="0 0 125.69305419921875 123.2845458984375"><defs><filter id="master_svg0_0_812" filterUnits="objectBoundingBox" color-interpolation-filters="sRGB" x="0" y="0" width="78.86663818359375" height="78.8592300415039"><feFlood flood-opacity="0" result="BackgroundImageFix"/><feBlend mode="normal" in="SourceGraphic" in2="BackgroundImageFix" result="shape"/><feGaussianBlur in="BackgroundImage" stdDeviation="6.5"/><feComposite in2="SourceAlpha" operator="in" result="effect1_foregroundBlur"/><feBlend mode="normal" in="SourceGraphic" in2="effect1_foregroundBlur" result="shape"/></filter><linearGradient x1="0.573619544506073" y1="0.5669642090797424" x2="-0.1503068059682846" y2="1.3124998807907104" id="master_svg1__36"><stop offset="0%" stop-color="#FFA78F" stop-opacity="1"/><stop offset="100%" stop-color="#F23E2C" stop-opacity="1"/></linearGradient><filter id="master_svg2_0_814" filterUnits="objectBoundingBox" color-interpolation-filters="sRGB" x="-32" y="-32" width="115.94160079956055" height="119.3478012084961"><feFlood flood-opacity="0" result="BackgroundImageFix"/><feBlend mode="normal" in="SourceGraphic" in2="BackgroundImageFix" result="shape"/><feGaussianBlur stdDeviation="8" result="effect1_foregroundBlur"/></filter><filter id="master_svg3_0_816" filterUnits="objectBoundingBox" color-interpolation-filters="sRGB" x="0" y="0" width="78.8592300415039" height="78.8592300415039"><feFlood flood-opacity="0" result="BackgroundImageFix"/><feBlend mode="normal" in="SourceGraphic" in2="BackgroundImageFix" result="shape"/><feGaussianBlur in="BackgroundImage" stdDeviation="7.5"/><feComposite in2="SourceAlpha" operator="in" result="effect1_foregroundBlur"/><feBlend mode="normal" in="SourceGraphic" in2="effect1_foregroundBlur" result="shape"/></filter><linearGradient x1="0.15918369591236115" y1="0.11650128662586212" x2="0.795918345451355" y2="0.907483696937561" id="master_svg4__17"><stop offset="0%" stop-color="#FFFFFF" stop-opacity="0.25"/><stop offset="100%" stop-color="#FFFFFF" stop-opacity="0"/></linearGradient><filter id="master_svg5_0_817" filterUnits="objectBoundingBox" color-interpolation-filters="sRGB" x="-15" y="-15" width="75.46693801879883" height="78.08900451660156"><feFlood flood-opacity="0" result="BackgroundImageFix"/><feColorMatrix in="SourceAlpha" type="matrix" values="0 0 0 0 0 0 0 0 0 0 0 0 0 0 0 0 0 0 127 0"/><feOffset dy="5" dx="5"/><feGaussianBlur stdDeviation="5"/><feColorMatrix type="matrix" values="0 0 0 0 1 0 0 0 0 0.4470588266849518 0 0 0 0 0.3686274588108063 0 0 0 0.5 0"/><feBlend mode="normal" in2="BackgroundImageFix" result="effect1_dropShadow"/><feBlend mode="normal" in="SourceGraphic" in2="effect1_dropShadow" result="shape"/><feGaussianBlur in="BackgroundImage" stdDeviation="7.5"/><feComposite in2="SourceAlpha" operator="in" result="effect2_foregroundBlur"/><feBlend mode="normal" in="SourceGraphic" in2="effect2_foregroundBlur" result="shape"/></filter><linearGradient x1="0.9291008114814758" y1="0.18057993054389954" x2="-0.1481175422668457" y2="1.3421075344085693" id="master_svg6__18"><stop offset="0%" stop-color="#FFFFFF" stop-opacity="1"/><stop offset="100%" stop-color="#FFFFFF" stop-opacity="0.20000000298023224"/></linearGradient><linearGradient x1="0.9571529626846313" y1="0.5211519598960876" x2="-0.014683089219033718" y2="0.5708988904953003" id="master_svg7__49"><stop offset="0%" stop-color="#FFFFFF" stop-opacity="1"/><stop offset="100%" stop-color="#FFFFFF" stop-opacity="0"/></linearGradient></defs><g><g><g><g transform="matrix(0.9659258127212524,-0.2588190734386444,0.2588190734386444,0.9659258127212524,-8.779040973915471,5.42997377381289)" filter="url(#master_svg0_0_812)"><path d="M74.10344912109375,36.05670166015625C74.10344912109375,36.05670166015625,37.263949121093745,36.05670166015625,37.263949121093745,36.05670166015625C23.83909912109375,36.05670166015625,16.23284912109375,43.66223166015625,16.23284912109375,57.08580166015625C16.23284912109375,57.08580166015625,16.23284912109375,93.88680166015625,16.23284912109375,93.88680166015625C16.23284912109375,107.31040166015624,23.83909912109375,114.91590166015625,37.263949121093745,114.91590166015625C37.263949121093745,114.91590166015625,74.10344912109375,114.91590166015625,74.10344912109375,114.91590166015625C87.52824912109375,114.91590166015625,95.09944912109376,107.31040166015624,95.09944912109376,93.88680166015625C95.09944912109376,93.88680166015625,95.09944912109376,57.08580166015625,95.09944912109376,57.08580166015625C95.09944912109376,43.66223166015625,87.52824912109375,36.05670166015625,74.10344912109375,36.05670166015625C74.10344912109375,36.05670166015625,74.10344912109375,36.05670166015625,74.10344912109375,36.05670166015625Z" fill="url(#master_svg1__36)" fill-opacity="1"/></g><g transform="matrix(-0.258819043636322,-0.9659258127212524,0.9659258127212524,-0.258819043636322,-36.76697619745755,159.56907731945466)" filter="url(#master_svg2_0_814)"><path d="M90.93264130859376,98.44457603515625C88.46804130859374,95.52037603515625,85.11784130859375,93.89068603515625,81.63514130859375,93.89068603515625C81.63514130859375,93.89068603515625,55.97854130859375,93.89068603515807,55.97854130859375,93.89068603515807C48.70414130859375,93.89068603515807,42.83734130859375,100.83990603515625,42.83734130859375,109.41878603515624C42.83734130859375,109.41878603515624,42.83734130859375,133.71038603515626,42.83734130859375,133.71038603515626C42.83734130859375,142.28928603515624,48.73011130859375,149.23848603515626,55.97854130859375,149.23848603515626C55.97854130859375,149.23848603515626,81.63514130859375,149.23848603515626,81.63514130859375,149.23848603515626C88.88354130859375,149.23848603515626,94.77894130859374,142.28928603515624,94.77894130859374,133.71038603515626C94.77894130859374,133.71038603515626,94.77894130859374,109.41878603515624,94.77894130859374,109.41878603515624C94.77894130859374,105.29848603515624,93.39984130859375,101.36263603515624,90.93264130859376,98.44457603515625Z" fill="#EF5641" fill-opacity="0.5"/></g></g><g><g filter="url(#master_svg3_0_816)"><path d="M98.23867412109375,40.75006103515625C98.23867412109375,40.75006103515625,61.40257412109375,40.75006103515625,61.40257412109375,40.75006103515625C47.97901412109375,40.75006103515625,40.37347412109375,48.35560103515625,40.37347412109375,61.77916103515625C40.37347412109375,61.77916103515625,40.37347412109375,98.58016103515625,40.37347412109375,98.58016103515625C40.37347412109375,112.00376103515624,47.97901412109375,119.60926103515625,61.40257412109375,119.60926103515625C61.40257412109375,119.60926103515625,98.23867412109375,119.60926103515625,98.23867412109375,119.60926103515625C111.66217412109376,119.60926103515625,119.23267412109375,112.00376103515624,119.23267412109375,98.58016103515625C119.23267412109375,98.58016103515625,119.23267412109375,61.77916103515625,119.23267412109375,61.77916103515625C119.23267412109375,48.35560103515625,111.66217412109376,40.75006103515625,98.23867412109375,40.75006103515625Z" fill="#FFAC95" fill-opacity="0.4000000059604645"/><path d="M39.37347412109375,61.77916103515625L39.37347412109375,98.58016103515625Q39.37347412109375,109.06206103515625,45.14708412109375,114.83566103515625Q50.920674121093754,120.60926103515625,61.40257412109375,120.60926103515625L98.23867412109375,120.60926103515625Q108.71707412109375,120.60926103515625,114.47747412109375,114.83476103515625Q120.23267412109375,109.06546103515625,120.23267412109375,98.58016103515625L120.23267412109375,61.77916103515625Q120.23267412109375,51.29386103515625,114.47747412109375,45.52454103515625Q108.71717412109375,39.75006103515625,98.23867412109375,39.75006103515625L61.40257412109375,39.75006103515625Q50.920674121093754,39.75006103515625,45.14708412109375,45.52367103515625Q39.37347412109375,51.297261035156254,39.37347412109375,61.77916103515625ZM61.40257412109375,40.75006103515625L98.23867412109375,40.75006103515625C111.66217412109376,40.75006103515625,119.23267412109375,48.35560103515625,119.23267412109375,61.77916103515625L119.23267412109375,98.58016103515625C119.23267412109375,112.00376103515624,111.66217412109376,119.60926103515625,98.23867412109375,119.60926103515625L61.40257412109375,119.60926103515625C47.97901412109375,119.60926103515625,40.37347412109375,112.00376103515624,40.37347412109375,98.58016103515625L40.37347412109375,61.77916103515625C40.37347412109375,48.35560103515625,47.97901412109375,40.75006103515625,61.40257412109375,40.75006103515625Z" fill-rule="evenodd" fill="url(#master_svg4__17)" fill-opacity="1"/></g><g filter="url(#master_svg5_0_817)"><path d="M76.84596318359375,96.27053291015625C76.84596318359375,96.27053291015625,76.84596318359375,71.23273291015624,76.84596318359375,71.23273291015624C76.84596318359375,71.23273291015624,67.14632318359375,81.01123291015625,67.14632318359375,81.01123291015625C65.96343318359375,82.15473291015624,64.11024318359375,82.15473291015624,62.92735718359375,81.01123291015625C61.78389818359375,79.86783291015625,61.78389818359375,77.97513291015625,62.92735718359375,76.83173291015625C62.92735718359375,76.83173291015625,77.71346318359375,61.96675491015625,77.71346318359375,61.96675491015625C78.81746318359374,60.86272591015625,80.78896318359375,60.86272591015625,81.89296318359375,61.96675491015625C81.89296318359375,61.96675491015625,96.67906318359374,76.83173291015625,96.67906318359374,76.83173291015625C97.82256318359376,77.97513291015625,97.82256318359376,79.86783291015625,96.67906318359374,81.01123291015625C96.08766318359375,81.56323291015624,95.33456318359376,81.87873291015624,94.58936318359375,81.87873291015624C93.84016318359375,81.87873291015624,93.05156318359374,81.56323291015624,92.49956318359375,81.01123291015625C92.49956318359375,81.01123291015625,82.76046318359374,71.23273291015624,82.76046318359374,71.23273291015624C82.76046318359374,71.23273291015624,82.76046318359374,96.27053291015625,82.76046318359374,96.27053291015625C82.76046318359374,97.92653291015625,81.45926318359375,99.22773291015625,79.80326318359374,99.22773291015625C78.18666318359375,99.22773291015625,76.84596318359375,97.92653291015625,76.84596318359375,96.27053291015625C76.84596318359375,96.27053291015625,76.84596318359375,96.27053291015625,76.84596318359375,96.27053291015625Z" fill="url(#master_svg6__18)" fill-opacity="1"/><path d="M76.84596318359375,96.27053291015625L76.84596318359375,71.23273291015624L76.64596318359375,71.43433291015626L67.14632318359375,81.01123291015625C65.96343318359375,82.15473291015624,64.11024318359375,82.15473291015624,62.92735718359375,81.01123291015625C61.78389818359375,79.86783291015625,61.78389818359375,77.97513291015625,62.92735718359375,76.83173291015625L77.71346318359375,61.96675491015625C78.81746318359374,60.86272591015625,80.78896318359375,60.86272591015625,81.89296318359375,61.96675491015625L96.67906318359374,76.83173291015625C97.82256318359376,77.97513291015625,97.82256318359376,79.86783291015625,96.67906318359374,81.01123291015625C96.08766318359375,81.56323291015624,95.33456318359376,81.87873291015624,94.58936318359375,81.87873291015624C93.84016318359375,81.87873291015624,93.05156318359374,81.56323291015624,92.49956318359375,81.01123291015625L82.96046318359375,71.43353291015625L82.76046318359374,71.23273291015624L82.76046318359374,96.27053291015625C82.76046318359374,97.92653291015625,81.45926318359375,99.22773291015625,79.80326318359374,99.22773291015625C78.18666318359375,99.22773291015625,76.84596318359375,97.92653291015625,76.84596318359375,96.27053291015625ZM97.33666318359374,78.92143291015626Q97.33666318359374,80.06913291015624,96.54006318359376,80.86733291015625Q95.66926318359376,81.67873291015624,94.58936318359375,81.67873291015624Q93.44996318359375,81.67873291015624,92.64096318359375,80.86983291015625L82.56046318359375,70.74851291015625L82.56046318359375,96.27053291015625Q82.56046318359375,97.42973291015625,81.76146318359375,98.22873291015625Q80.96246318359375,99.02773291015626,79.80326318359374,99.02773291015626Q78.66626318359374,99.02773291015626,77.85916318359375,98.22803291015626Q77.04596318359376,97.42233291015626,77.04596318359376,96.27053291015625L77.04596318359376,70.74711291015625L67.00433318359374,80.87043291015625Q66.17829318359375,81.66883291015625,65.03684318359375,81.66883291015625Q63.89538318359375,81.66883291015625,63.06636518359375,80.86743291015625Q62.26976318359375,80.07083291015624,62.26976318359375,78.92143291015626Q62.26976318359375,77.77213291015624,63.06877518359375,76.97313291015625L77.85526318359375,62.10779891015625Q78.62426318359375,61.33873291015625,79.80316318359375,61.33873291015625Q80.98216318359376,61.33873291015625,81.75156318359375,62.10817391015625L96.53726318359375,76.97273291015625Q97.33666318359374,77.77213291015624,97.33666318359374,78.92143291015626Z" fill-rule="evenodd" fill="url(#master_svg7__49)" fill-opacity="0.5"/></g></g></g></g></svg>