<svg xmlns="http://www.w3.org/2000/svg" xmlns:xlink="http://www.w3.org/1999/xlink" fill="none" version="1.1" width="100" height="100" viewBox="0 0 100 100"><defs><clipPath id="master_svg0_119_76"><rect x="0" y="0" width="100" height="100" rx="0"/></clipPath></defs><g clip-path="url(#master_svg0_119_76)"><rect x="0" y="0" width="100" height="100" rx="0" fill="#FFFFFF" fill-opacity="1"/><g><path d="M34.97563896484375,86.2377C45.18853896484375,84.8624,57.37443896484375,78.4084,67.88473896484375,67.89869999999999C70.36883896484375,65.41460000000001,72.62663896484375,62.8362,74.64383896484375,60.2136C72.04233896484375,80.1458,61.98973896484375,95,49.98603896484375,95C44.36663896484375,95,39.17543896484375,91.7445,34.97563896484375,86.2377ZM25.32883896484375,39.7864C27.92963896484375,19.8542,37.98153896484375,5,49.98603896484375,5C55.60533896484375,5,60.79653896484375,8.255469999999999,64.99633896484374,13.76234C54.78343896484375,15.1377,42.59753896484375,21.5916,32.08723896484375,32.101299999999995C29.67043896484375,34.5142,27.41263896484375,37.0813,25.32813896484375,39.7864L25.32883896484375,39.7864ZM11.09754896484375,55.1195C17.39543896484375,63.2764,29.07783896484375,70.603,43.43423896484375,74.4498C46.73253896484375,75.3363,50.08483896484375,76.008,53.46993896484375,76.4607C34.906738964843754,84.174,17.01644896484375,82.8957,11.01527896484375,72.5C8.20559296484375,67.6344,8.42848396484375,61.5102,11.09824896484375,55.1195L11.09754896484375,55.1195ZM46.50203896484375,23.5393C65.06523896484376,15.826,82.95553896484375,17.104300000000002,88.95673896484375,27.5C91.76643896484374,32.3656,91.54353896484375,38.4898,88.87373896484375,44.8806C82.57653896484375,36.723600000000005,70.89483896484376,29.397,56.53703896484375,25.5502C53.23903896484375,24.6637,49.88693896484375,23.992,46.50203896484375,23.5393ZM26.10783896484375,18.8818C22.19283896484375,28.4141,21.68873896484375,42.1946,25.53623896484375,56.551C26.41743896484375,59.8505,27.51173896484375,63.0893,28.81203896484375,66.2471C12.85113896484375,54.0275,5.01269896484375,37.8957,11.01457896484375,27.5C13.82425896484375,22.6344,19.23903896484375,19.7656,26.10783896484375,18.8818ZM71.15993896484375,33.7529C87.12083896484376,45.9725,94.95923896484375,62.1043,88.95743896484375,72.5C86.14773896484375,77.3656,80.73293896484375,80.2344,73.86413896484375,81.1182C77.77913896484375,71.5859,78.28323896484375,57.8054,74.43573896484375,43.449C73.55453896484374,40.1496,72.46023896484374,36.9107,71.15993896484375,33.7529ZM49.98603896484375,68.2812C40.27793896484375,68.2812,32.40783896484375,60.4112,32.40783896484375,50.7031C32.40783896484375,40.9951,40.27793896484375,33.125,49.98603896484375,33.125C59.69403896484375,33.125,67.56413896484375,40.9951,67.56413896484375,50.7031C67.56413896484375,60.4112,59.69403896484375,68.2812,49.98603896484375,68.2812ZM49.98603896484375,59.1406C54.64563896484375,59.1406,58.42343896484375,55.3627,58.42343896484375,50.7031C58.42343896484375,46.0435,54.64563896484375,42.2656,49.98603896484375,42.2656C45.32633896484375,42.2656,41.54843896484375,46.0435,41.54843896484375,50.7031C41.54843896484375,55.3627,45.32633896484375,59.1406,49.98603896484375,59.1406Z" fill="#FA5151" fill-opacity="1"/></g></g></svg>