<svg xmlns="http://www.w3.org/2000/svg" xmlns:xlink="http://www.w3.org/1999/xlink" fill="none" version="1.1" width="128.1866455078125" height="117.246337890625" viewBox="0 0 128.1866455078125 117.246337890625"><defs><linearGradient x1="1.0040814876556396" y1="1.8366693721461047e-9" x2="-2.8531008666732305e-8" y2="1.0068026781082153" id="master_svg0__56"><stop offset="0%" stop-color="#39AFFD" stop-opacity="1"/><stop offset="100%" stop-color="#477FFF" stop-opacity="1"/></linearGradient><filter id="master_svg1_0_583" filterUnits="objectBoundingBox" color-interpolation-filters="sRGB" x="-40" y="-40" width="102.15742492675781" height="108.9485092163086"><feFlood flood-opacity="0" result="BackgroundImageFix"/><feBlend mode="normal" in="SourceGraphic" in2="BackgroundImageFix" result="shape"/><feGaussianBlur stdDeviation="10" result="effect1_foregroundBlur"/></filter><filter id="master_svg2_0_586" filterUnits="objectBoundingBox" color-interpolation-filters="sRGB" x="-15" y="-15" width="78.9594841003418" height="81.08353805541992"><feFlood flood-opacity="0" result="BackgroundImageFix"/><feColorMatrix in="SourceAlpha" type="matrix" values="0 0 0 0 0 0 0 0 0 0 0 0 0 0 0 0 0 0 127 0"/><feOffset dy="5" dx="5"/><feGaussianBlur stdDeviation="5"/><feColorMatrix type="matrix" values="0 0 0 0 0.1537500023841858 0 0 0 0 0.5224330425262451 0 0 0 0 0.8999999761581421 0 0 0 0.5 0"/><feBlend mode="normal" in2="BackgroundImageFix" result="effect1_dropShadow"/><feBlend mode="normal" in="SourceGraphic" in2="effect1_dropShadow" result="shape"/><feGaussianBlur in="BackgroundImage" stdDeviation="7.5"/><feComposite in2="SourceAlpha" operator="in" result="effect2_foregroundBlur"/><feBlend mode="normal" in="SourceGraphic" in2="effect2_foregroundBlur" result="shape"/></filter><linearGradient x1="1.2503329515457153" y1="0.24023884534835815" x2="-0.1481175571680069" y2="1.3421082496643066" id="master_svg3__77"><stop offset="0%" stop-color="#FFFFFF" stop-opacity="1"/><stop offset="100%" stop-color="#FFFFFF" stop-opacity="0.20000000298023224"/></linearGradient><filter id="master_svg4_0_591" filterUnits="objectBoundingBox" color-interpolation-filters="sRGB" x="0" y="0" width="70.12592315673828" height="58.43830108642578"><feFlood flood-opacity="0" result="BackgroundImageFix"/><feBlend mode="normal" in="SourceGraphic" in2="BackgroundImageFix" result="shape"/><feGaussianBlur in="BackgroundImage" stdDeviation="12"/><feComposite in2="SourceAlpha" operator="in" result="effect1_foregroundBlur"/><feBlend mode="normal" in="SourceGraphic" in2="effect1_foregroundBlur" result="shape"/></filter><linearGradient x1="0.15918369591236115" y1="0.11650128662586212" x2="0.795918345451355" y2="0.907483696937561" id="master_svg5__17"><stop offset="0%" stop-color="#FFFFFF" stop-opacity="0.25"/><stop offset="100%" stop-color="#FFFFFF" stop-opacity="0"/></linearGradient></defs><g><g><g transform="matrix(0.9659258127212524,0.2588190734386444,-0.2588190734386444,0.9659258127212524,5.419266979044636,-7.526898593806607)"><g><path d="M76.60076601257325,32.99815733184815C76.60046601257324,32.99605733184815,76.60036601257323,32.993757331848144,76.60036601257323,32.99135733184815L76.60036601257323,32.26785733184815C76.23856601257324,23.632947331848143,69.10876601257324,16.818257331848145,60.43646601257324,16.818257331848145C51.764266012573245,16.818257331848145,44.63446601257324,23.632947331848143,44.27256601257324,32.26785733184815C44.22986601257324,32.50945733184815,44.22986601257324,32.756657331848146,44.27256601257324,32.99815733184815L49.03576601257324,32.99815733184815C49.078466012573244,32.756657331848146,49.078466012573244,32.50945733184815,49.03576601257324,32.26785733184815C49.03576601257324,26.062897331848145,54.08326601257325,21.032757331848146,60.309666012573246,21.032757331848146C66.53606601257324,21.032757331848146,71.58356601257324,26.062897331848145,71.58356601257324,32.26785733184815C71.58666601257323,32.517757331848145,71.63436601257325,32.764957331848144,71.72446601257325,32.99815733184815L71.72676601257325,32.99815733184815L44.01906601257324,32.99815733184815C39.872166012573246,32.99815733184815,35.43928601257324,35.73575733184815,34.152316012573245,43.09465733184814L31.635580012573243,63.14045733184815C29.576426012573243,77.85845733184814,37.15523601257324,81.53795733184815,47.05056601257324,81.53795733184815L73.87666601257325,81.53795733184815C83.74346601257324,81.53795733184815,91.09346601257324,76.21005733184815,89.26306601257323,63.14045733184815L86.77496601257324,43.09465733184814C85.25916601257325,35.941757331848144,80.96926601257324,32.99815733184815,76.87956601257324,32.99815733184815L76.60076601257325,32.99815733184815Z" fill-rule="evenodd" fill="url(#master_svg0__56)" fill-opacity="1"/></g><g style="opacity:0.5;" filter="url(#master_svg1_0_583)"><path d="M52.41815910083008,51.62342422821045C52.97389210083008,46.39952422821045,57.38098210083008,42.43640422821045,62.634322100830076,42.43640422821045C62.634322100830076,42.43640422821045,62.634322100830076,42.43640422821045,62.634322100830076,42.43640422821045C67.88772210083008,42.43640422821045,72.29482210083007,46.39955422821045,72.85052210083008,51.62347422821045C72.85052210083008,51.62347422821045,73.64962210083007,59.135604228210454,73.64962210083007,59.135604228210454C74.34592210083008,65.68030422821045,69.21592210083008,71.38490422821044,62.634322100830076,71.38490422821044C62.634322100830076,71.38490422821044,62.634322100830076,71.38490422821044,62.634322100830076,71.38490422821044C56.05272210083008,71.38490422821044,50.92274810083008,65.68030422821045,51.618989500830075,59.135604228210454C51.618989500830075,59.135604228210454,52.41815910083008,51.62342422821045,52.41815910083008,51.62342422821045C52.41815910083008,51.62342422821045,52.41815910083008,51.62342422821045,52.41815910083008,51.62342422821045Z" fill="#0062FF" fill-opacity="1"/></g></g><g transform="matrix(0.9659258127212524,-0.2588190734386444,0.2588190734386444,0.9659258127212524,-6.1611632946942905,10.44721395062544)"><g filter="url(#master_svg2_0_586)"><path d="M89.86604754333496,48.16824578552246C89.87824754333496,48.47044578552246,89.71844754333496,54.62744578552246,89.59454754333495,54.90354578552246C89.59454754333495,54.90354578552246,83.99574754333497,54.90354578552246,83.99574754333497,54.90354578552246C83.88734754333495,54.62284578552246,83.82984754333496,47.52394578552246,83.82604754333497,47.22314578552246C83.82604754333497,39.75284578552246,77.74924754333496,33.69688578552246,70.25314754333496,33.69688578552246C62.75704754333496,33.69688578552246,56.68030754333496,39.75284578552246,56.68030754333496,47.22314578552246C56.731667543334964,47.51394578552246,56.73171754333496,54.61264578552246,56.680357543334964,54.90354578552246C56.680357543334964,54.90354578552246,50.945795343334964,54.90354578552246,50.945795343334964,54.90354578552246C50.89443284333496,54.61264578552246,50.89438094333496,47.51394578552246,50.94574344333496,47.22314578552246C51.38143854333496,36.82732578552246,59.96513754333496,28.62294578552246,70.40584754333496,28.62294578552246C80.84664754333497,28.62294578552246,89.43034754333496,36.82732578552246,89.86604754333496,47.22314578552246C89.86604754333496,47.22314578552246,89.86604754333496,48.16824578552246,89.86604754333496,48.16824578552246C89.86604754333496,48.16824578552246,89.86604754333496,48.16824578552246,89.86604754333496,48.16824578552246ZM60.23783754333496,69.70594578552246C58.33624754333496,69.70594578552246,56.79469754333496,68.11924578552245,56.79469754333496,66.16204578552245C56.79469754333496,64.20484578552245,58.33624754333496,62.61814578552246,60.23783754333496,62.61814578552246C62.13944754333496,62.61814578552246,63.68094754333496,64.20484578552245,63.68094754333496,66.16204578552245C63.68094754333496,66.16204578552245,63.68094754333496,66.16204578552245,63.68094754333496,66.16204578552245C63.68094754333496,68.11924578552245,62.13944754333496,69.70594578552246,60.23783754333496,69.70594578552246C60.23783754333496,69.70594578552246,60.23783754333496,69.70594578552246,60.23783754333496,69.70594578552246ZM82.79004754333496,69.70644578552246C80.88844754333496,69.70644578552246,79.34694754333496,68.11984578552246,79.34694754333496,66.16264578552247C79.34694754333496,64.20544578552247,80.88844754333496,62.618745785522464,82.79004754333496,62.618745785522464C84.69164754333497,62.618745785522464,86.23324754333495,64.20544578552247,86.23324754333495,66.16264578552247C86.23324754333495,68.11984578552246,84.69164754333497,69.70644578552246,82.79004754333496,69.70644578552246C82.79004754333496,69.70644578552246,82.79004754333496,69.70644578552246,82.79004754333496,69.70644578552246Z" fill="url(#master_svg3__77)" fill-opacity="1"/></g><g filter="url(#master_svg4_0_591)"><path d="M106.38464726257324,85.90248806152343L103.38914726257325,61.76878806152344C101.56424726257325,53.15726806152344,96.39954726257324,49.613403320323435,91.47584726257324,49.613403320323435L51.914147262573245,49.613403320323435C46.92154726257324,49.613403320323435,41.58471726257324,52.90919806152344,40.03530726257324,61.76878806152344L37.00534426257324,85.90248806152343C34.526277262573245,103.62178806152343,43.650607262573246,108.05168806152344,55.56384726257324,108.05168806152344L87.86054726257325,108.05168806152344C99.73934726257323,108.05168806152344,108.58824726257325,101.63728806152344,106.38464726257324,85.90248806152343ZM56.90764726257324,66.12728806152344C56.90764726257324,68.08448806152344,58.44924726257324,69.67118806152344,60.35084726257324,69.67118806152344C62.25244726257324,69.67118806152344,63.79394726257324,68.08448806152344,63.79394726257324,66.12728806152344C63.79394726257324,64.17008806152344,62.25244726257324,62.58348806152344,60.35084726257324,62.58348806152344C58.44924726257324,62.58348806152344,56.90764726257324,64.17008806152344,56.90764726257324,66.12728806152344ZM82.90284726257323,69.67168806152344C81.00124726257324,69.67168806152344,79.45964726257324,68.08508806152344,79.45964726257324,66.12788806152344C79.45964726257324,64.17068806152344,81.00124726257324,62.583988061523435,82.90284726257323,62.583988061523435C84.80444726257323,62.583988061523435,86.34594726257325,64.17068806152344,86.34594726257325,66.12788806152344C86.34594726257325,68.08508806152344,84.80444726257323,69.67168806152344,82.90284726257323,69.67168806152344Z" fill-rule="evenodd" fill="#3EA0FE" fill-opacity="0.3499999940395355"/><path d="M107.37714726257325,85.77928806152343Q107.37664726257324,85.77548806152345,107.37604726257324,85.77168806152343L104.38154726257324,61.64558806152344Q104.37624726257324,61.603288061523436,104.36744726257324,61.561488061523434Q103.01164726257325,55.16397806152344,99.27134726257324,51.725578061523436Q95.88584726257324,48.61340406152344,91.47584726257324,48.61340506152344L51.914147262573245,48.613403061523435Q47.37054726257324,48.613403061523435,44.015597262573245,51.62453806152344Q40.194437262573246,55.05404806152344,39.05025726257324,61.59648806152344Q39.046107262573244,61.62028806152344,39.04309726257324,61.64418806152344L36.013134262573246,85.77788806152344Q34.21842726257324,98.60498806152344,40.19489726257324,104.34318806152343Q45.09894726257324,109.05168806152344,55.56384726257324,109.05168806152344L87.86054726257325,109.05168806152344Q92.61084726257324,109.05168806152344,96.40114726257323,107.74928806152343Q100.45474726257325,106.35648806152344,103.12544726257325,103.56958806152343Q109.00494726257324,97.43438806152344,107.37714726257325,85.77928806152343ZM103.38914726257325,61.76878806152344L106.38464726257324,85.90248806152343C108.58824726257325,101.63728806152344,99.73934726257323,108.05168806152344,87.86054726257325,108.05168806152344L55.56384726257324,108.05168806152344C43.650607262573246,108.05168806152344,34.526277262573245,103.62178806152343,37.00534426257324,85.90248806152343L40.03530726257324,61.76878806152344C41.58471726257324,52.90919806152344,46.92154726257324,49.613403320323435,51.914147262573245,49.613403320323435L91.47584726257324,49.613403320323435C96.39954726257324,49.613403320323435,101.56424726257325,53.15726806152344,103.38914726257325,61.76878806152344ZM60.35084726257324,69.67118806152344C58.44924726257324,69.67118806152344,56.90764726257324,68.08448806152344,56.90764726257324,66.12728806152344C56.90764726257324,64.17008806152344,58.44924726257324,62.58348806152344,60.35084726257324,62.58348806152344C62.25244726257324,62.58348806152344,63.79394726257324,64.17008806152344,63.79394726257324,66.12728806152344C63.79394726257324,68.08448806152344,62.25244726257324,69.67118806152344,60.35084726257324,69.67118806152344ZM79.45964726257324,66.12788806152344C79.45964726257324,68.08508806152344,81.00124726257324,69.67168806152344,82.90284726257323,69.67168806152344C84.80444726257323,69.67168806152344,86.34594726257325,68.08508806152344,86.34594726257325,66.12788806152344C86.34594726257325,64.17068806152344,84.80444726257323,62.583988061523435,82.90284726257323,62.583988061523435C81.00124726257324,62.583988061523435,79.45964726257324,64.17068806152344,79.45964726257324,66.12788806152344ZM58.63334726257324,67.93638806152345Q57.90764726257324,67.18938806152343,57.90764726257324,66.12728806152344Q57.90764726257324,65.06518806152344,58.63334726257324,64.31828806152343Q59.34734726257324,63.58348806152344,60.35084726257324,63.58348806152344Q61.35434726257324,63.58348806152344,62.06824726257324,64.31828806152343Q62.79394726257324,65.06518806152344,62.79394726257324,66.12728806152344Q62.79394726257324,67.18938806152343,62.06824726257324,67.93638806152345Q61.35434726257324,68.67118806152344,60.35084726257324,68.67118806152344Q59.34734726257324,68.67118806152344,58.63334726257324,67.93638806152345ZM84.62024726257324,67.93688806152343Q83.90634726257323,68.67168806152344,82.90284726257323,68.67168806152344Q81.89934726257324,68.67168806152344,81.18534726257325,67.93688806152343Q80.45964726257324,67.18998806152344,80.45964726257324,66.12788806152344Q80.45964726257324,65.06568806152343,81.18534726257325,64.31878806152343Q81.89934726257324,63.583988061523435,82.90284726257323,63.583988061523435Q83.90634726257323,63.583988061523435,84.62024726257324,64.31878806152343Q85.34594726257325,65.06568806152343,85.34594726257325,66.12788806152344Q85.34594726257325,67.18998806152344,84.62024726257324,67.93688806152343Z" fill-rule="evenodd" fill="url(#master_svg5__17)" fill-opacity="1"/></g></g></g></g></svg>