<svg xmlns="http://www.w3.org/2000/svg" xmlns:xlink="http://www.w3.org/1999/xlink" fill="none" version="1.1" width="109.669921875" height="113.97369384765625" viewBox="0 0 109.669921875 113.97369384765625"><defs><linearGradient x1="0.5" y1="3.0616171314629196e-17" x2="0.5" y2="1" id="master_svg0__20"><stop offset="0%" stop-color="#FFB37F" stop-opacity="1"/><stop offset="100%" stop-color="#FF7B0D" stop-opacity="1"/></linearGradient><filter id="master_svg1_0_235" filterUnits="objectBoundingBox" color-interpolation-filters="sRGB" x="-30" y="-30" width="103.52320098876953" height="108.3591079711914"><feFlood flood-opacity="0" result="BackgroundImageFix"/><feBlend mode="normal" in="SourceGraphic" in2="BackgroundImageFix" result="shape"/><feGaussianBlur stdDeviation="7.5" result="effect1_foregroundBlur"/></filter><filter id="master_svg2_0_238" filterUnits="objectBoundingBox" color-interpolation-filters="sRGB" x="0" y="0" width="65.21473693847656" height="80.89250183105469"><feFlood flood-opacity="0" result="BackgroundImageFix"/><feBlend mode="normal" in="SourceGraphic" in2="BackgroundImageFix" result="shape"/><feGaussianBlur in="BackgroundImage" stdDeviation="12"/><feComposite in2="SourceAlpha" operator="in" result="effect1_foregroundBlur"/><feBlend mode="normal" in="SourceGraphic" in2="effect1_foregroundBlur" result="shape"/></filter><linearGradient x1="0.15918369591236115" y1="0.11650128662586212" x2="0.795918345451355" y2="0.907483696937561" id="master_svg3__17"><stop offset="0%" stop-color="#FFFFFF" stop-opacity="0.25"/><stop offset="100%" stop-color="#FFFFFF" stop-opacity="0"/></linearGradient><filter id="master_svg4_0_240" filterUnits="objectBoundingBox" color-interpolation-filters="sRGB" x="-15" y="-15" width="71" height="46"><feFlood flood-opacity="0" result="BackgroundImageFix"/><feColorMatrix in="SourceAlpha" type="matrix" values="0 0 0 0 0 0 0 0 0 0 0 0 0 0 0 0 0 0 127 0"/><feOffset dy="5" dx="5"/><feGaussianBlur stdDeviation="5"/><feColorMatrix type="matrix" values="0 0 0 0 1 0 0 0 0 0.5215686559677124 0 0 0 0 0.13333334028720856 0 0 0 0.5 0"/><feBlend mode="normal" in2="BackgroundImageFix" result="effect1_dropShadow"/><feBlend mode="normal" in="SourceGraphic" in2="effect1_dropShadow" result="shape"/><feGaussianBlur in="BackgroundImage" stdDeviation="7.5"/><feComposite in2="SourceAlpha" operator="in" result="effect2_foregroundBlur"/><feBlend mode="normal" in="SourceGraphic" in2="effect2_foregroundBlur" result="shape"/></filter><linearGradient x1="0.9291008114814758" y1="0.18057993054389954" x2="-0.1481175422668457" y2="1.3421075344085693" id="master_svg5__18"><stop offset="0%" stop-color="#FFFFFF" stop-opacity="1"/><stop offset="100%" stop-color="#FFFFFF" stop-opacity="0.20000000298023224"/></linearGradient><linearGradient x1="0.15918369591236115" y1="0.11650128662586212" x2="0.795918345451355" y2="0.907483696937561" id="master_svg6__17"><stop offset="0%" stop-color="#FFFFFF" stop-opacity="0.25"/><stop offset="100%" stop-color="#FFFFFF" stop-opacity="0"/></linearGradient></defs><g><g><g><g transform="matrix(0.9374256134033203,-0.34818559885025024,0.34818559885025024,0.9374256134033203,-10.43016480672668,6.51201208949351)"><path d="M31.1065658203125,32.2745971680125L54.0666658203125,32.2745971680125C64.1363658203125,32.2745971680125,72.3035658203125,36.2389461328125,72.4019658203125,46.3811361328125L72.4019658203125,102.8070361328125C72.39796582031249,103.4413361328125,72.24036582031249,104.0650361328125,71.9427658203125,104.6240361328125C71.46466582031249,105.5359361328125,70.63906582031251,106.2128361328125,69.65566582031249,106.4994361328125C68.6721658203125,106.7860361328125,67.6152658203125,106.6576361328125,66.72756582031249,106.1437361328125L42.6194658203125,94.0854361328125L18.478985820312502,106.1434361328125C16.6559158203125,107.1330361328125,14.3818258203125,106.4723361328125,13.3621568203125,104.6568361328125C13.0643618203125,104.0859361328125,12.9068867403125,103.4515361328125,12.9029541013125,102.8067361328125L12.9029541013125,75.8993361328125C12.9026282263125,75.87183613281249,12.9024658203125,75.84413613281251,12.9024658203125,75.8164361328125L12.9024658203125,46.3811361328125C12.9024658203125,36.2389461328125,21.0697158203125,32.2745971680125,31.1065658203125,32.2745971680125Z" fill-rule="evenodd" fill="url(#master_svg0__20)" fill-opacity="1"/></g><g transform="matrix(0.9659258127212524,-0.2588190734386444,0.2588190734386444,0.9659258127212524,-9.108747366099124,8.455023821134091)" style="opacity:0.5;" filter="url(#master_svg1_0_235)"><path d="M59.4520626953125,38.8214111328125C59.4520626953125,38.8214111328125,39.1871626953125,38.8214111328125,39.1871626953125,38.8214111328125C31.8365426953125,38.8214111328125,27.5567626953125,43.125371132812504,27.5567626953125,50.5001111328125C27.5567626953125,50.5001111328125,27.5567626953125,75.4776111328125,27.5567626953125,75.4776111328125C27.5567626953125,82.9733111328125,31.8365426953125,87.1805111328125,39.1871626953125,87.1805111328125C39.1871626953125,87.1805111328125,59.4520626953125,87.1805111328125,59.4520626953125,87.1805111328125C66.9210626953125,87.1805111328125,71.0799626953125,82.9733111328125,71.0799626953125,75.4776111328125C71.0799626953125,75.4776111328125,71.0799626953125,50.5001111328125,71.0799626953125,50.5001111328125C71.0799626953125,43.125371132812504,66.9210626953125,38.8214111328125,59.4520626953125,38.8214111328125C59.4520626953125,38.8214111328125,59.4520626953125,38.8214111328125,59.4520626953125,38.8214111328125Z" fill="#EB6F0A" fill-opacity="1"/></g></g><g><g filter="url(#master_svg2_0_238)"><path d="M67.65833613281251,98.7981767578125C67.65833613281251,98.7981767578125,42.6972161328125,112.4728767578125,42.6972161328125,112.4728767578125C40.7042661328125,113.5086767578125,38.2489961328125,112.7754767578125,37.1502991328125,110.8164767578125C37.1502991328125,110.8164767578125,37.1502991328125,110.8164767578125,37.1502991328125,110.8164767578125C36.8324321328125,110.2096767578125,36.6609409328125,109.5368767578125,36.6495361328125,108.8519767578125C36.6495361328125,108.8519767578125,36.6495361328125,48.2596767578125,36.6495361328125,48.2596767578125C36.6495361328125,36.7036067578125,44.5461861328125,32.0811767578125,55.9096361328125,32.0811767578125C55.9096361328125,32.0811767578125,82.6041361328125,32.0811767578125,82.6041361328125,32.0811767578125C93.6209361328125,32.0811767578125,101.8642361328125,36.3954467578125,101.8642361328125,47.4892767578125C101.8642361328125,47.4892767578125,101.8642361328125,108.8519767578125,101.8642361328125,108.8519767578125C101.8642361328125,109.9450767578125,101.4300361328125,110.9934767578125,100.6570361328125,111.7663767578125C99.8841361328125,112.5393767578125,98.8357361328125,112.9736767578125,97.74263613281249,112.9736767578125C97.04533613281251,112.9625767578125,96.3600361328125,112.7912767578125,95.7395361328125,112.4728767578125C95.7395361328125,112.4728767578125,70.6243361328125,98.7981767578125,70.6243361328125,98.7981767578125C69.69893613281249,98.2981767578125,68.58383613281251,98.2981767578125,67.65833613281251,98.7981767578125C67.65833613281251,98.7981767578125,67.65833613281251,98.7981767578125,67.65833613281251,98.7981767578125Z" fill-rule="evenodd" fill="#FFCBB9" fill-opacity="0.3499999940395355"/><path d="M68.1388361328125,99.6751767578125Q69.1439361328125,99.1349767578125,70.1461361328125,99.6764767578125L95.2613361328125,113.3511767578125L95.2721361328125,113.3569767578125L95.2830361328125,113.3625767578125Q96.43353613281249,113.9529767578125,97.74263613281249,113.9736767578125Q99.86413613281249,113.9736767578125,101.3641361328125,112.4735767578125Q102.8642361328125,110.9735767578125,102.8642361328125,108.8519767578125L102.8642361328125,47.4892767578125Q102.8642361328125,39.0546767578125,96.9482361328125,34.8123867578125Q91.7449361328125,31.0811767578125,82.6041361328125,31.0811767578125L55.9096361328125,31.0811767578125Q46.5826261328125,31.0811767578125,41.4102161328125,35.0430167578125Q35.6495361328125,39.4554667578125,35.6495361328125,48.2596767578125L35.6496751328125,108.8685767578125Q35.6709701328125,110.1474767578125,36.2644801328125,111.2804767578125L36.2711141328125,111.2931767578125L36.2781081328125,111.3056767578125Q37.300201132812504,113.1280767578125,39.3022761328125,113.7258767578125Q41.3043761328125,114.3237767578125,43.1776761328125,113.3498767578125L68.1336361328125,99.6779767578125L68.1359361328125,99.6767767578125L68.1388361328125,99.6751767578125ZM42.6972161328125,112.4728767578125L67.65833613281251,98.7981767578125C68.58383613281251,98.2981767578125,69.69893613281249,98.2981767578125,70.6243361328125,98.7981767578125L95.7395361328125,112.4728767578125C96.3600361328125,112.7912767578125,97.04533613281251,112.9625767578125,97.74263613281249,112.9736767578125C98.8357361328125,112.9736767578125,99.8841361328125,112.5393767578125,100.6570361328125,111.7663767578125C101.4300361328125,110.9934767578125,101.8642361328125,109.9450767578125,101.8642361328125,108.8519767578125L101.8642361328125,47.4892767578125C101.8642361328125,36.3954467578125,93.6209361328125,32.0811767578125,82.6041361328125,32.0811767578125L55.9096361328125,32.0811767578125C44.5461861328125,32.0811767578125,36.6495361328125,36.7036067578125,36.6495361328125,48.2596767578125L36.6495361328125,108.8519767578125C36.6609409328125,109.5368767578125,36.8324321328125,110.2096767578125,37.1502991328125,110.8164767578125C38.2489961328125,112.7754767578125,40.7042661328125,113.5086767578125,42.6972161328125,112.4728767578125Z" fill-rule="evenodd" fill="url(#master_svg3__17)" fill-opacity="1"/></g><g filter="url(#master_svg4_0_240)"><path d="M81.8934580078125,58.3917236328125C81.8934580078125,58.3917236328125,56.2454980078125,58.3917236328125,56.2454980078125,58.3917236328125C54.7675680078125,58.3917236328125,53.5694580078125,57.0485736328125,53.5694580078125,55.3917236328125C53.5694580078125,53.7348736328125,54.7675680078125,52.3917236328125,56.2454980078125,52.3917236328125C56.2454980078125,52.3917236328125,81.8934580078125,52.3917236328125,81.8934580078125,52.3917236328125C83.3713580078125,52.3917236328125,84.5694580078125,53.7348736328125,84.5694580078125,55.3917236328125C84.5694580078125,57.0485736328125,83.3713580078125,58.3917236328125,81.8934580078125,58.3917236328125C81.8934580078125,58.3917236328125,81.8934580078125,58.3917236328125,81.8934580078125,58.3917236328125Z" fill="url(#master_svg5__18)" fill-opacity="1"/><path d="M81.8934580078125,58.3917236328125L56.2454980078125,58.3917236328125C54.7675680078125,58.3917236328125,53.5694580078125,57.0485736328125,53.5694580078125,55.3917236328125C53.5694580078125,53.7348736328125,54.7675680078125,52.3917236328125,56.2454980078125,52.3917236328125L81.8934580078125,52.3917236328125C83.3713580078125,52.3917236328125,84.5694580078125,53.7348736328125,84.5694580078125,55.3917236328125C84.5694580078125,57.0485736328125,83.3713580078125,58.3917236328125,81.8934580078125,58.3917236328125ZM81.8934580078125,57.9917236328125Q82.82265800781249,57.9917236328125,83.4871580078125,57.2467736328125Q84.1694580078125,56.4818836328125,84.1694580078125,55.3917236328125Q84.1694580078125,54.3015636328125,83.4871580078125,53.5366736328125Q82.82265800781249,52.7917236328125,81.8934580078125,52.7917236328125L56.2454980078125,52.7917236328125Q55.3162580078125,52.7917236328125,54.651758007812504,53.5366736328125Q53.9694580078125,54.3015636328125,53.9694580078125,55.3917236328125Q53.9694580078125,56.4818836328125,54.651758007812504,57.2467736328125Q55.3162580078125,57.9917236328125,56.2454980078125,57.9917236328125L81.8934580078125,57.9917236328125Z" fill-rule="evenodd" fill="url(#master_svg6__17)" fill-opacity="1"/></g></g></g></g></svg>