<svg xmlns="http://www.w3.org/2000/svg" xmlns:xlink="http://www.w3.org/1999/xlink" fill="none" version="1.1" width="131.157470703125" height="117.1080322265625" viewBox="0 0 131.157470703125 117.1080322265625"><defs><linearGradient x1="0.573619544506073" y1="0.5669642090797424" x2="-0.1503068059682846" y2="1.3124998807907104" id="master_svg0__36"><stop offset="0%" stop-color="#FFA78F" stop-opacity="1"/><stop offset="100%" stop-color="#F23E2C" stop-opacity="1"/></linearGradient><filter id="master_svg1_0_742" filterUnits="objectBoundingBox" color-interpolation-filters="sRGB" x="-34" y="-34" width="104.40729904174805" height="114.79391479492188"><feFlood flood-opacity="0" result="BackgroundImageFix"/><feBlend mode="normal" in="SourceGraphic" in2="BackgroundImageFix" result="shape"/><feGaussianBlur stdDeviation="8.5" result="effect1_foregroundBlur"/></filter><filter id="master_svg2_0_745" filterUnits="objectBoundingBox" color-interpolation-filters="sRGB" x="0" y="0" width="81.66670227050781" height="73.5"><feFlood flood-opacity="0" result="BackgroundImageFix"/><feBlend mode="normal" in="SourceGraphic" in2="BackgroundImageFix" result="shape"/><feGaussianBlur in="BackgroundImage" stdDeviation="7.5"/><feComposite in2="SourceAlpha" operator="in" result="effect1_foregroundBlur"/><feBlend mode="normal" in="SourceGraphic" in2="effect1_foregroundBlur" result="shape"/></filter><linearGradient x1="0.15918369591236115" y1="0.11650127917528152" x2="1.040816307067871" y2="0.9591836333274841" id="master_svg3__96"><stop offset="0%" stop-color="#FFFFFF" stop-opacity="0.25"/><stop offset="100%" stop-color="#FFFFFF" stop-opacity="0.15000000596046448"/></linearGradient><filter id="master_svg4_0_746" filterUnits="objectBoundingBox" color-interpolation-filters="sRGB" x="-15" y="-15" width="82.6714096069336" height="73.03837203979492"><feFlood flood-opacity="0" result="BackgroundImageFix"/><feColorMatrix in="SourceAlpha" type="matrix" values="0 0 0 0 0 0 0 0 0 0 0 0 0 0 0 0 0 0 127 0"/><feOffset dy="5" dx="5"/><feGaussianBlur stdDeviation="5"/><feColorMatrix type="matrix" values="0 0 0 0 1 0 0 0 0 0.4470588266849518 0 0 0 0 0.3686274588108063 0 0 0 0.5 0"/><feBlend mode="normal" in2="BackgroundImageFix" result="effect1_dropShadow"/><feBlend mode="normal" in="SourceGraphic" in2="effect1_dropShadow" result="shape"/><feGaussianBlur in="BackgroundImage" stdDeviation="7.5"/><feComposite in2="SourceAlpha" operator="in" result="effect2_foregroundBlur"/><feBlend mode="normal" in="SourceGraphic" in2="effect2_foregroundBlur" result="shape"/></filter><linearGradient x1="0.9291008114814758" y1="0.18057993054389954" x2="-0.1481175422668457" y2="1.3421075344085693" id="master_svg5__18"><stop offset="0%" stop-color="#FFFFFF" stop-opacity="1"/><stop offset="100%" stop-color="#FFFFFF" stop-opacity="0.20000000298023224"/></linearGradient><linearGradient x1="0.9571529626846313" y1="0.5211519598960876" x2="-0.014683089219033718" y2="0.5708988904953003" id="master_svg6__49"><stop offset="0%" stop-color="#FFFFFF" stop-opacity="1"/><stop offset="100%" stop-color="#FFFFFF" stop-opacity="0"/></linearGradient><linearGradient x1="0.5736196041107178" y1="0.5669642090797424" x2="-0.1503068208694458" y2="1.3124998807907104" id="master_svg7__97"><stop offset="0%" stop-color="#FFA78F" stop-opacity="1"/><stop offset="100%" stop-color="#F23E2C" stop-opacity="1"/></linearGradient></defs><g><g><g><g transform="matrix(0.9306514859199524,-0.36590683460235596,0.36590683460235596,0.9306514859199524,-13.558443074034585,9.551645688585268)"><path d="M62.309677734375,40.54534912109375C62.309677734375,40.54534912109375,35.773677734375,40.54534912109375,35.773677734375,40.54534912109375C25.398007734375,40.54534912109375,18.419677734375,47.82974912109375,18.419677734375,58.66454912109375C18.419677734375,58.66454912109375,18.419677734375,83.67024912109375,18.419677734375,83.67024912109375C18.419677734375,94.47434912109375,25.398007734375,101.75874912109376,35.773677734375,101.75874912109376C35.773677734375,101.75874912109376,62.309677734375,101.75874912109376,62.309677734375,101.75874912109376C72.68537773437501,101.75874912109376,79.63307773437501,94.47434912109375,79.63307773437501,83.67024912109375C79.63307773437501,83.67024912109375,79.63307773437501,58.66454912109375,79.63307773437501,58.66454912109375C79.63307773437501,47.82974912109375,72.68537773437501,40.54534912109375,62.309677734375,40.54534912109375Z" fill="url(#master_svg0__36)" fill-opacity="1"/></g><g transform="matrix(0.36557355523109436,0.9307824373245239,-0.9307824373245239,0.36557355523109436,79.3736554030329,-50.33688240033189)" style="opacity:0.5;" filter="url(#master_svg1_0_742)"><path d="M103.29246054687499,33.05706787109375C103.29246054687499,33.05706787109375,86.340890546875,33.05706787109375,86.340890546875,33.05706787109375C80.192110546875,33.05706787109375,76.612060546875,37.22172787109375,76.612060546875,44.35776787109375C76.612060546875,44.35776787109375,76.612060546875,68.52686787109374,76.612060546875,68.52686787109374C76.612060546875,75.77986787109376,80.192110546875,79.85096787109376,86.340890546875,79.85096787109376C86.340890546875,79.85096787109376,103.29246054687499,79.85096787109376,103.29246054687499,79.85096787109376C109.54036054687501,79.85096787109376,113.01936054687499,75.77986787109376,113.01936054687499,68.52686787109374C113.01936054687499,68.52686787109374,113.01936054687499,44.35776787109375,113.01936054687499,44.35776787109375C113.01936054687499,37.22172787109375,109.54036054687501,33.05706787109375,103.29246054687499,33.05706787109375C103.29246054687499,33.05706787109375,103.29246054687499,33.05706787109375,103.29246054687499,33.05706787109375Z" fill="#FF624D" fill-opacity="1"/></g></g><g><g filter="url(#master_svg2_0_745)"><path d="M106.747627734375,51.256773388671874C106.747627734375,51.256773388671874,106.339227734375,50.35947338867187,106.339227734375,50.35947338867187C105.236727734375,48.034533388671875,103.97092773437501,45.34252338867188,103.195127734375,43.79258338867187C101.31672773437501,40.12166338867188,98.090927734375,38.082261388671874,94.13012773437501,38.041473388671875C94.13012773437501,38.041473388671875,74.89762773437499,38.041473388671875,74.89762773437499,38.041473388671875C70.936727734375,38.082261388671874,67.751727734375,40.12166338867188,65.873427734375,43.79258338867187C65.056727734375,45.424103388671874,63.668427734375,48.36087338867188,62.525127734375005,50.76737338867187C62.525127734375005,50.76737338867187,62.280127734375,51.256773388671874,62.280127734375,51.256773388671874C62.157627734375,51.58307338867188,61.830927734374995,51.746273388671874,61.504227734375,51.746273388671874C51.663427734375,51.746273388671874,43.700927734375,59.74067338867188,43.700927734375,69.52977338867187C43.700927734375,69.52977338867187,43.700927734375,93.75787338867187,43.700927734375,93.75787338867187C43.700927734375,103.54707338867188,51.663427734375,111.54147338867188,61.504227734375,111.54147338867188C61.504227734375,111.54147338867188,107.56422773437501,111.54147338867188,107.56422773437501,111.54147338867188C117.364227734375,111.54147338867188,125.367627734375,103.54707338867188,125.367627734375,93.75787338867187C125.367627734375,93.75787338867187,125.367627734375,69.52977338867187,125.367627734375,69.52977338867187C125.367627734375,59.74067338867188,117.364227734375,51.746273388671874,107.56422773437501,51.746273388671874C107.196727734375,51.746273388671874,106.91092773437501,51.54227338867187,106.747627734375,51.256773388671874C106.747627734375,51.256773388671874,106.747627734375,51.256773388671874,106.747627734375,51.256773388671874Z" fill="#FFAC95" fill-opacity="0.4000000059604645"/><path d="M42.700927734375,69.52977338867187L42.700927734375,93.75787338867187Q42.700927734375,97.56797338867187,44.177980734375,101.05627338867188Q45.604917734375,104.42627338867187,48.205007734375,107.02757338867187Q50.807367734375,109.63117338867187,54.180827734375,111.06017338867187Q57.677727734375,112.54147338867188,61.504227734375,112.54147338867188L107.56422773437501,112.54147338867188Q111.376727734375,112.54147338867188,114.870727734375,111.06007338867188Q118.242227734375,109.63057338867188,120.847627734375,107.02817338867187Q123.453127734375,104.42557338867188,124.884327734375,101.05747338867187Q126.367627734375,97.56677338867188,126.367627734375,93.75787338867187L126.367627734375,69.52977338867187Q126.367627734375,65.72087338867188,124.884327734375,62.230273388671876Q123.453127734375,58.86217338867188,120.847627734375,56.259573388671875Q118.242327734375,53.65717338867188,114.870727734375,52.227673388671874Q111.399527734375,50.755973388671876,107.614027734375,50.74637338867188L107.24942773437499,49.945173388671876Q107.051227734375,49.52707338867187,106.665127734375,48.71157338867187Q104.736927734375,44.638713388671874,104.08932773437499,43.34498338867188Q102.553227734375,40.342843388671874,99.97892773437499,38.71110638867187Q97.397827734375,37.075070388671875,94.14042773437501,37.041527388671874L74.89762773437499,37.041473388671875Q71.633227734375,37.075036388671876,69.066627734375,38.71272538867188Q66.516827734375,40.33970338867188,64.98322773437499,43.337073388671875Q64.258227734375,44.78523338867188,62.053427734375,49.42947338867187Q61.760827734375,50.045773388671876,61.621927734375,50.33827338867187L61.417327734375,50.74647338867187Q57.637927734375,50.76307338867188,54.180827734375,52.22757338867187Q50.807367734375,53.65657338867187,48.205007734375,56.26017338867187Q45.604917734375,58.861473388671875,44.177979734375,62.23137338867188Q42.700927734375,65.71967338867188,42.700927734375,69.52977338867187ZM106.339227734375,50.35947338867187L106.747627734375,51.256773388671874C106.91092773437501,51.54227338867187,107.196727734375,51.746273388671874,107.56422773437501,51.746273388671874C117.364227734375,51.746273388671874,125.367627734375,59.74067338867188,125.367627734375,69.52977338867187L125.367627734375,93.75787338867187C125.367627734375,103.54707338867188,117.364227734375,111.54147338867188,107.56422773437501,111.54147338867188L61.504227734375,111.54147338867188C51.663427734375,111.54147338867188,43.700927734375,103.54707338867188,43.700927734375,93.75787338867187L43.700927734375,69.52977338867187C43.700927734375,59.74067338867188,51.663427734375,51.746273388671874,61.504227734375,51.746273388671874C61.830927734374995,51.746273388671874,62.157627734375,51.58307338867188,62.280127734375,51.256773388671874L62.525127734375005,50.76737338867187C63.668427734375,48.36087338867188,65.056727734375,45.424103388671874,65.873427734375,43.79258338867187C67.751727734375,40.12166338867188,70.936727734375,38.082261388671874,74.89762773437499,38.041473388671875L94.13012773437501,38.041473388671875C98.090927734375,38.082261388671874,101.31672773437501,40.12166338867188,103.195127734375,43.79258338867187C103.97092773437501,45.34252338867188,105.236727734375,48.034533388671875,106.339227734375,50.35947338867187Z" fill-rule="evenodd" fill="url(#master_svg3__96)" fill-opacity="1"/></g><g filter="url(#master_svg4_0_746)"><path d="M103.7666382080078,66.91964533325195C103.7666382080078,68.95904533325195,105.39993820800781,70.59056533325196,107.44163820800782,70.59056533325196C109.4832382080078,70.59056533325196,111.15743820800782,68.95904533325195,111.15743820800782,66.91964533325195C111.15743820800782,64.88024533325195,109.4832382080078,63.20793533325195,107.44163820800782,63.20793533325195C105.39993820800781,63.20793533325195,103.7666382080078,64.88024533325195,103.7666382080078,66.91964533325195ZM95.84513820800781,91.55563533325196C92.94593820800782,94.45163533325196,88.94423820800782,96.24633533325195,84.53423820800782,96.24633533325195C80.24673820800781,96.24633533325195,76.24509820800782,94.57403533325196,73.18259820800782,91.55563533325196C70.1609382080078,88.49653533325196,68.48676799600781,84.49933533325195,68.48676799600781,80.21663533325196C68.44593470800781,75.97463533325195,70.12009820800782,71.97741533325195,73.14176820800782,68.91831533325195C76.20426820800782,65.85921533325195,80.24673820800781,64.18690833325195,84.53423820800782,64.18690833325195C88.82173820800782,64.18690833325195,92.8642382080078,65.85921533325195,95.88593820800781,68.87752533325195C98.90763820800781,71.93662533325195,100.5817382080078,75.97463533325195,100.5817382080078,80.21663533325196C100.54093820800782,84.66253533325195,98.74423820800781,88.65973533325194,95.84513820800781,91.55563533325196ZM84.53423820800782,70.30495533325195C81.88003820800782,70.30495533325195,79.38923820800781,71.32465533325195,77.47005820800781,73.24173533325195C75.59172820800781,75.11793533325195,74.57089820800782,77.60603533325195,74.61172820800782,80.17563533325196L74.61172820800782,80.21643533325195C74.61172820800782,82.86763533325195,75.63255820800781,85.35573533325196,77.51089820800782,87.23193533325195C79.38923820800781,89.10823533325195,81.88003820800782,90.12793533325195,84.53423820800782,90.12793533325195C90.00593820800782,90.12793533325195,94.41593820800782,85.68203533325195,94.4567382080078,80.21643533325195C94.4567382080078,77.56523533325195,93.43593820800781,75.07713533325196,91.55753820800781,73.20090533325195C89.67923820800782,71.32465533325195,87.18843820800781,70.30495533325195,84.53423820800782,70.30495533325195Z" fill-rule="evenodd" fill="url(#master_svg5__18)" fill-opacity="1"/><path d="M107.44163820800782,70.59056533325196C105.39993820800781,70.59056533325196,103.7666382080078,68.95904533325195,103.7666382080078,66.91964533325195C103.7666382080078,64.88024533325195,105.39993820800781,63.20793533325195,107.44163820800782,63.20793533325195C109.4832382080078,63.20793533325195,111.15743820800782,64.88024533325195,111.15743820800782,66.91964533325195C111.15743820800782,68.95904533325195,109.4832382080078,70.59056533325196,107.44163820800782,70.59056533325196ZM104.9798382080078,69.37837533325195Q103.96663820800782,68.36628533325195,103.96663820800782,66.91964533325195Q103.96663820800782,65.46819533325196,104.98093820800781,64.43943533325195Q105.99793820800781,63.407935333251956,107.44163820800782,63.407935333251956Q108.89013820800781,63.40793433325195,109.92383820800782,64.44051533325195Q110.95743820800782,65.47301533325195,110.95743820800782,66.91964533325195Q110.95743820800782,68.36152533325195,109.9249382080078,69.37730533325195Q108.89493820800782,70.39056533325196,107.44163820800782,70.39056533325196Q105.99313820800782,70.39056533325196,104.9798382080078,69.37837533325195ZM84.53423820800782,96.24633533325195C88.94423820800782,96.24633533325195,92.94593820800782,94.45163533325196,95.84513820800781,91.55563533325196C98.74423820800781,88.65973533325194,100.54093820800782,84.66253533325195,100.5817382080078,80.21663533325196C100.5817382080078,75.97463533325195,98.90763820800781,71.93662533325195,95.88593820800781,68.87752533325195C92.8642382080078,65.85921533325195,88.82173820800782,64.18690833325195,84.53423820800782,64.18690833325195C80.24673820800781,64.18690833325195,76.20426820800782,65.85921533325195,73.14176820800782,68.91831533325195C70.12009820800782,71.97741533325195,68.44593470800781,75.97463533325195,68.48676799600781,80.21663533325196C68.48676799600781,84.49933533325195,70.1609382080078,88.49653533325196,73.18259820800782,91.55563533325196C76.24509820800782,94.57403533325196,80.24673820800781,96.24633533325195,84.53423820800782,96.24633533325195ZM99.10133820800782,86.38893533325195Q97.89153820800782,89.22873533325196,95.70383820800781,91.41413533325195Q93.51353820800782,93.60193533325196,90.67823820800781,94.80283533325195Q87.74213820800782,96.04633533325196,84.53423820800782,96.04633533325196Q81.36673820800782,96.04623533325196,78.47561820800782,94.84813533325195Q75.59812820800781,93.65553533325195,73.32298820800781,91.41313533325196Q71.08005820800781,89.14233533325195,69.88625820800782,86.26823533325195Q68.68676720800781,83.38043533325195,68.6867682080078,80.21663533325196Q68.65664020800781,77.08583533325195,69.85062820800782,74.20033533325196Q71.03666820800781,71.33409533325195,73.2840582080078,69.05886533325196Q75.5498582080078,66.79559533325195,78.45526820800781,65.59018533325195Q81.35553820800781,64.38690533325196,84.53423820800782,64.38690533325196Q87.70933820800781,64.38690533325196,90.60833820800781,65.58518533325196Q93.50593820800782,66.78282533325195,95.74463820800781,69.01902533325196Q97.98303820800781,71.28515533325195,99.18223820800782,74.18003533325195Q100.38173820800782,77.07573533325196,100.38173820800782,80.21663533325196Q100.35203820800781,83.45303533325196,99.10133820800782,86.38893533325195ZM88.41293820800782,70.86438533325196Q86.56773820800781,70.10495533325195,84.53423820800782,70.10495533325195Q80.32723820800781,70.10495533325195,77.32871820800781,73.10019533325195Q75.89312820800781,74.53413533325195,75.1362682080078,76.37253533325196Q74.38043820800782,78.20833533325195,74.41175820800781,80.17883533325195L74.41172820800782,80.21643533325195Q74.41172820800782,82.24783533325196,75.17204820800781,84.09113533325196Q75.93483820800782,85.94033533325195,77.36955820800782,87.37343533325196Q78.80423820800782,88.80663533325196,80.65553820800781,89.56853533325196Q82.50073820800782,90.32793533325196,84.53423820800782,90.32793533325196Q86.58953820800781,90.32793533325196,88.46543820800781,89.53203533325195Q90.27503820800781,88.76413533325196,91.67363820800782,87.36313533325196Q93.06983820800781,85.96443533325196,93.84263820800781,84.14923533325195Q94.64143820800781,82.27303533325195,94.65673820800781,80.21793533325196Q94.65673820800781,78.18513533325195,93.89643820800781,76.34183533325195Q93.13363820800781,74.49253533325195,91.69893820800782,73.05939533325196Q90.26423820800781,71.62628533325196,88.41293820800782,70.86438533325196ZM77.47005820800781,73.24173533325195C79.38923820800781,71.32465533325195,81.88003820800782,70.30495533325195,84.53423820800782,70.30495533325195C87.18843820800781,70.30495533325195,89.67923820800782,71.32465533325195,91.55753820800781,73.20090533325195C93.43593820800781,75.07713533325196,94.4567382080078,77.56523533325195,94.4567382080078,80.21643533325195C94.41593820800782,85.68203533325195,90.00593820800782,90.12793533325195,84.53423820800782,90.12793533325195C81.88003820800782,90.12793533325195,79.38923820800781,89.10823533325195,77.51089820800782,87.23193533325195C75.63255820800781,85.35573533325196,74.61172820800782,82.86763533325195,74.61172820800782,80.21643533325195L74.61172820800782,80.17563533325196C74.57089820800782,77.60603533325195,75.59172820800781,75.11793533325195,77.47005820800781,73.24173533325195Z" fill-rule="evenodd" fill="url(#master_svg6__49)" fill-opacity="0.5"/></g><g><path d="M118.03655747680664,18.041473388671875C118.03655747680664,18.041473388671875,108.77203747680664,18.041473388671875,108.77203747680664,18.041473388671875C108.56072747680665,18.041473388671875,108.37223747680665,18.174309388671876,108.30116747680664,18.373306388671875C108.30116747680664,18.373306388671875,103.65830957680664,31.373273388671876,103.65830957680664,31.373273388671876C103.54201557680663,31.698973388671874,103.78341447680664,32.041473388671875,104.12917947680664,32.041473388671875C104.12917947680664,32.041473388671875,110.20582747680665,32.041473388671875,110.20582747680665,32.041473388671875C110.55280747680663,32.041473388671875,110.79430747680664,32.386273388671874,110.67572747680664,32.71237338867188C110.67572747680664,32.71237338867188,107.75796747680664,40.73617338867187,107.75796747680664,40.73617338867187C107.57189747680664,41.24787338867188,108.22187747680664,41.64627338867187,108.59338747680664,41.24817338867187C108.59338747680664,41.24817338867187,120.13455747680663,28.882673388671876,120.13455747680663,28.882673388671876C120.43285747680665,28.562973388671875,120.20625747680664,28.041473388671875,119.76905747680664,28.041473388671875C119.76905747680664,28.041473388671875,113.80275747680665,28.041473388671875,113.80275747680665,28.041473388671875C113.41412747680664,28.041473388671875,113.17406747680664,27.617483388671875,113.37402747680665,27.284223388671876C113.37402747680665,27.284223388671876,118.46535747680664,18.798721388671876,118.46535747680664,18.798721388671876C118.66525747680664,18.465459388671874,118.42525747680664,18.041473388671875,118.03655747680664,18.041473388671875C118.03655747680664,18.041473388671875,118.03655747680664,18.041473388671875,118.03655747680664,18.041473388671875Z" fill="url(#master_svg7__97)" fill-opacity="1"/></g></g></g></g></svg>