<svg xmlns="http://www.w3.org/2000/svg" xmlns:xlink="http://www.w3.org/1999/xlink" fill="none" version="1.1" width="121.91754150390625" height="115.99822998046875" viewBox="0 0 121.91754150390625 115.99822998046875"><defs><filter id="master_svg0_0_766" filterUnits="objectBoundingBox" color-interpolation-filters="sRGB" x="0" y="0" width="79.697998046875" height="79.69049835205078"><feFlood flood-opacity="0" result="BackgroundImageFix"/><feBlend mode="normal" in="SourceGraphic" in2="BackgroundImageFix" result="shape"/><feGaussianBlur in="BackgroundImage" stdDeviation="6.5"/><feComposite in2="SourceAlpha" operator="in" result="effect1_foregroundBlur"/><feBlend mode="normal" in="SourceGraphic" in2="effect1_foregroundBlur" result="shape"/></filter><linearGradient x1="0.573619544506073" y1="0.5669642090797424" x2="-0.1503068059682846" y2="1.3124998807907104" id="master_svg1__36"><stop offset="0%" stop-color="#FFA78F" stop-opacity="1"/><stop offset="100%" stop-color="#F23E2C" stop-opacity="1"/></linearGradient><filter id="master_svg2_0_767" filterUnits="objectBoundingBox" color-interpolation-filters="sRGB" x="-26" y="-26" width="106.94559860229492" height="104.86449813842773"><feFlood flood-opacity="0" result="BackgroundImageFix"/><feBlend mode="normal" in="SourceGraphic" in2="BackgroundImageFix" result="shape"/><feGaussianBlur stdDeviation="6.5" result="effect1_foregroundBlur"/></filter><filter id="master_svg3_0_769" filterUnits="objectBoundingBox" color-interpolation-filters="sRGB" x="0" y="0" width="79.69049835205078" height="79.69049835205078"><feFlood flood-opacity="0" result="BackgroundImageFix"/><feBlend mode="normal" in="SourceGraphic" in2="BackgroundImageFix" result="shape"/><feGaussianBlur in="BackgroundImage" stdDeviation="7.5"/><feComposite in2="SourceAlpha" operator="in" result="effect1_foregroundBlur"/><feBlend mode="normal" in="SourceGraphic" in2="effect1_foregroundBlur" result="shape"/></filter><linearGradient x1="0.15918369591236115" y1="0.11650128662586212" x2="0.795918345451355" y2="0.907483696937561" id="master_svg4__17"><stop offset="0%" stop-color="#FFFFFF" stop-opacity="0.25"/><stop offset="100%" stop-color="#FFFFFF" stop-opacity="0"/></linearGradient><filter id="master_svg5_0_771" filterUnits="objectBoundingBox" color-interpolation-filters="sRGB" x="-15" y="-15" width="83.52924728393555" height="87.07170486450195"><feFlood flood-opacity="0" result="BackgroundImageFix"/><feColorMatrix in="SourceAlpha" type="matrix" values="0 0 0 0 0 0 0 0 0 0 0 0 0 0 0 0 0 0 127 0"/><feOffset dy="5" dx="5"/><feGaussianBlur stdDeviation="5"/><feColorMatrix type="matrix" values="0 0 0 0 1 0 0 0 0 0.4470588266849518 0 0 0 0 0.3686274588108063 0 0 0 0.5 0"/><feBlend mode="normal" in2="BackgroundImageFix" result="effect1_dropShadow"/><feBlend mode="normal" in="SourceGraphic" in2="effect1_dropShadow" result="shape"/><feGaussianBlur in="BackgroundImage" stdDeviation="7.5"/><feComposite in2="SourceAlpha" operator="in" result="effect2_foregroundBlur"/><feBlend mode="normal" in="SourceGraphic" in2="effect2_foregroundBlur" result="shape"/></filter><linearGradient x1="-0.25884920358657837" y1="0.7422205805778503" x2="1.2655216455459595" y2="1.1568313837051392" id="master_svg6__98"><stop offset="0%" stop-color="#FFFFFF" stop-opacity="1"/><stop offset="100%" stop-color="#FFFFFF" stop-opacity="0.20000000298023224"/></linearGradient><linearGradient x1="0.15918369591236115" y1="0.11650128662586212" x2="0.795918345451355" y2="0.907483696937561" id="master_svg7__17"><stop offset="0%" stop-color="#FFFFFF" stop-opacity="0.25"/><stop offset="100%" stop-color="#FFFFFF" stop-opacity="0"/></linearGradient></defs><g><g><g><g transform="matrix(0.9659258127212524,-0.2588190734386444,0.2588190734386444,0.9659258127212524,-7.602372658690001,3.9014696375234053)" filter="url(#master_svg0_0_766)"><path d="M69.49671328125001,30.8236083984375C69.49671328125001,30.8236083984375,32.26891328125,30.8236083984375,32.26891328125,30.8236083984375C18.70254328125,30.8236083984375,11.01611328125,38.5093083984375,11.01611328125,52.0744083984375C11.01611328125,52.0744083984375,11.01611328125,89.2633083984375,11.01611328125,89.2633083984375C11.01611328125,102.8284083984375,18.70254328125,110.5141083984375,32.26891328125,110.5141083984375C32.26891328125,110.5141083984375,69.49671328125001,110.5141083984375,69.49671328125001,110.5141083984375C83.06311328125,110.5141083984375,90.71411328125,102.8284083984375,90.71411328125,89.2633083984375C90.71411328125,89.2633083984375,90.71411328125,52.0744083984375,90.71411328125,52.0744083984375C90.71411328125,38.5093083984375,83.06311328125,30.8236083984375,69.49671328125001,30.8236083984375C69.49671328125001,30.8236083984375,69.49671328125001,30.8236083984375,69.49671328125001,30.8236083984375Z" fill="url(#master_svg1__36)" fill-opacity="1"/></g><g transform="matrix(0.2552478611469269,0.9668756723403931,-0.9668756723403931,0.2552478611469269,78.85733923688531,-54.713825618917326)" style="opacity:0.5;" filter="url(#master_svg2_0_767)"><path d="M115.21082421874999,23.8314208984375C115.21082421874999,23.8314208984375,89.62752421875,23.8314208984375,89.62752421875,23.8314208984375C80.34780421875,23.8314208984375,74.94482421875,28.5363608984375,74.94482421875,36.5982208984375C74.94482421875,36.5982208984375,74.94482421875,63.9027208984375,74.94482421875,63.9027208984375C74.94482421875,72.0967208984375,80.34780421875,76.69592089843749,89.62752421875,76.69592089843749C89.62752421875,76.69592089843749,115.21082421874999,76.69592089843749,115.21082421874999,76.69592089843749C124.64002421875,76.69592089843749,129.89042421875,72.0967208984375,129.89042421875,63.9027208984375C129.89042421875,63.9027208984375,129.89042421875,36.5982208984375,129.89042421875,36.5982208984375C129.89042421875,28.5363608984375,124.64002421875,23.8314208984375,115.21082421874999,23.8314208984375C115.21082421874999,23.8314208984375,115.21082421874999,23.8314208984375,115.21082421874999,23.8314208984375Z" fill="#FF624D" fill-opacity="1"/></g></g><g><g filter="url(#master_svg3_0_769)"><path d="M98.76562734375,32.633758544921875C98.76562734375,32.633758544921875,61.54132734375,32.633758544921875,61.54132734375,32.633758544921875C47.97622734375,32.633758544921875,40.29052734375,40.31945854492187,40.29052734375,53.88455854492187C40.29052734375,53.88455854492187,40.29052734375,91.07345854492188,40.29052734375,91.07345854492188C40.29052734375,104.63855854492188,47.97622734375,112.32425854492188,61.54132734375,112.32425854492188C61.54132734375,112.32425854492188,98.76562734375,112.32425854492188,98.76562734375,112.32425854492188C112.33072734375,112.32425854492188,119.98102734375,104.63855854492188,119.98102734375,91.07345854492188C119.98102734375,91.07345854492188,119.98102734375,53.88455854492187,119.98102734375,53.88455854492187C119.98102734375,40.31945854492187,112.33072734375,32.633758544921875,98.76562734375,32.633758544921875Z" fill="#FFAC95" fill-opacity="0.4000000059604645"/><path d="M39.29052734375,91.07345854492188Q39.29052734375,101.66155854492187,45.12190734375,107.49285854492187Q50.953327343750004,113.32425854492188,61.54132734375,113.32425854492188L98.76562734375,113.32425854492188Q109.35022734375,113.32425854492188,115.16822734375,107.49195854492187Q120.98102734375,101.66485854492187,120.98102734375,91.07345854492188L120.98102734375,53.88455854492187Q120.98102734375,43.29305854492188,115.16822734375,37.46600854492188Q109.35022734375,31.633758544921875,98.76562734375,31.633760544921874L61.54132734375,31.633758544921875Q50.953327343750004,31.633758544921875,45.12190734375,37.46513854492188Q39.29053134375,43.29655854492188,39.29052934375,53.88455854492187L39.29052734375,91.07345854492188ZM61.54132734375,32.633758544921875L98.76562734375,32.633758544921875C112.33072734375,32.633758544921875,119.98102734375,40.31945854492187,119.98102734375,53.88455854492187L119.98102734375,91.07345854492188C119.98102734375,104.63855854492188,112.33072734375,112.32425854492188,98.76562734375,112.32425854492188L61.54132734375,112.32425854492188C47.97622734375,112.32425854492188,40.29052734375,104.63855854492188,40.29052734375,91.07345854492188L40.29052734375,53.88455854492187C40.29052734375,40.31945854492187,47.97622734375,32.633758544921875,61.54132734375,32.633758544921875Z" fill-rule="evenodd" fill="url(#master_svg4__17)" fill-opacity="1"/></g><g filter="url(#master_svg5_0_771)"><path d="M61.68215659057617,61.996925115966796C59.875846590576174,61.996925115966796,58.38828659057617,63.4845251159668,58.38828659057617,65.32622511596679C58.38828659057617,65.32622511596679,58.38828659057617,92.7043251159668,58.38828659057617,92.7043251159668C58.38828659057617,94.5106251159668,59.875846590576174,95.99822511596679,61.68215659057617,95.99822511596679C63.52389659057617,95.99822511596679,65.01144659057617,94.5106251159668,65.01144659057617,92.7043251159668C65.01144659057617,92.7043251159668,65.01144659057617,65.32622511596679,65.01144659057617,65.32622511596679C65.01144659057617,63.4845251159668,63.52389659057617,61.996925115966796,61.68215659057617,61.996925115966796ZM80.27668659057618,48.9265251159668C78.47038659057617,48.9265251159668,76.98278659057617,50.4140851159668,76.98278659057617,52.2558151159668C76.98278659057617,52.2558151159668,76.98278659057617,92.7031251159668,76.98278659057617,92.7031251159668C76.98278659057617,94.50942511596679,78.47038659057617,95.9970251159668,80.27668659057618,95.9970251159668C82.11848659057617,95.9970251159668,83.60598659057618,94.50942511596679,83.60598659057618,92.7031251159668C83.60598659057618,92.7031251159668,83.60598659057618,52.2558151159668,83.60598659057618,52.2558151159668C83.60598659057618,50.4140851159668,82.11848659057617,48.9265251159668,80.27668659057618,48.9265251159668ZM98.62368659057617,76.4472251159668C96.78188659057616,76.4472251159668,95.29438659057618,77.9347251159668,95.29438659057618,79.77652511596679C95.29438659057618,79.77652511596679,95.29438659057618,92.7041251159668,95.29438659057618,92.7041251159668C95.29438659057618,94.5104251159668,96.78188659057616,95.9979251159668,98.58818659057617,95.9979251159668C100.42998659057616,95.9979251159668,101.91748659057617,94.5104251159668,101.91748659057617,92.7041251159668C101.91748659057617,92.7041251159668,101.91748659057617,79.77652511596679,101.91748659057617,79.77652511596679C101.91748659057617,77.9347251159668,100.42998659057616,76.4472251159668,98.62368659057617,76.4472251159668Z" fill="url(#master_svg6__98)" fill-opacity="1"/><path d="M76.98278659057617,52.2558151159668C76.98278659057617,50.4140851159668,78.47038659057617,48.9265251159668,80.27668659057618,48.9265251159668C82.11848659057617,48.9265251159668,83.60598659057618,50.4140851159668,83.60598659057618,52.2558151159668L83.60598659057618,92.7031251159668C83.60598659057618,94.50942511596679,82.11848659057617,95.9970251159668,80.27668659057618,95.9970251159668C78.47038659057617,95.9970251159668,76.98278659057617,94.50942511596679,76.98278659057617,92.7031251159668L76.98278659057617,52.2558151159668ZM78.23628659057617,50.182315115966794Q79.08578659057618,49.326525115966795,80.27668659057618,49.326525115966795Q81.49228659057617,49.326525115966795,82.34918659057617,50.183365115966794Q83.20598659057617,51.040195115966796,83.20598659057617,52.2558151159668L83.20598659057617,92.7031251159668Q83.20598659057617,93.8940251159668,82.35018659057617,94.7435251159668Q81.49038659057618,95.5970251159668,80.27668659057618,95.5970251159668Q79.08768659057617,95.5970251159668,78.23528659057618,94.7446251159668Q77.38278659057617,93.89212511596679,77.38278659057617,92.7031251159668L77.38278659057617,52.2558151159668Q77.38278659057617,51.042095115966795,78.23628659057617,50.182315115966794ZM58.38828659057617,65.32622511596679C58.38828659057617,63.4845251159668,59.875846590576174,61.996925115966796,61.68215659057617,61.996925115966796C63.52389659057617,61.996925115966796,65.01144659057617,63.4845251159668,65.01144659057617,65.32622511596679L65.01144659057617,92.7043251159668C65.01144659057617,94.5106251159668,63.52389659057617,95.99822511596679,61.68215659057617,95.99822511596679C59.875846590576174,95.99822511596679,58.38828659057617,94.5106251159668,58.38828659057617,92.7043251159668L58.38828659057617,65.32622511596679ZM59.64173659057617,63.2527251159668Q60.49123659057617,62.396925115966795,61.68215659057617,62.396925115966795Q62.89776659057617,62.396925115966795,63.754606590576174,63.253725115966795Q64.61144659057618,64.1106251159668,64.61144659057618,65.32622511596679L64.61144659057618,92.7043251159668Q64.61144659057618,93.8952251159668,63.75565659057617,94.74472511596679Q62.89587659057617,95.5982251159668,61.68215659057617,95.5982251159668Q60.49311659057617,95.5982251159668,59.64069659057617,94.7458251159668Q58.78828659057617,93.8934251159668,58.78828659057617,92.7043251159668L58.78828659057617,65.32622511596679Q58.78828659057617,64.1125251159668,59.64173659057617,63.2527251159668ZM95.29438659057618,79.77652511596679C95.29438659057618,77.9347251159668,96.78188659057616,76.4472251159668,98.62368659057617,76.4472251159668C100.42998659057616,76.4472251159668,101.91748659057617,77.9347251159668,101.91748659057617,79.77652511596679L101.91748659057617,92.7041251159668C101.91748659057617,94.5104251159668,100.42998659057616,95.9979251159668,98.58818659057617,95.9979251159668C96.78188659057616,95.9979251159668,95.29438659057618,94.5104251159668,95.29438659057618,92.7041251159668L95.29438659057618,79.77652511596679ZM96.55118659057618,77.7040251159668Q97.40808659057618,76.8472251159668,98.62368659057617,76.8472251159668Q99.81458659057617,76.8472251159668,100.66408659057618,77.7030251159668Q101.51748659057617,78.5627251159668,101.51748659057617,79.77652511596679L101.51748659057617,92.7041251159668Q101.51748659057617,93.8950251159668,100.66178659057617,94.7444251159668Q99.80198659057618,95.5979251159668,98.58818659057617,95.5979251159668Q97.39918659057616,95.5978251159668,96.54678659057618,94.7455251159668Q95.69438659057617,93.8931251159668,95.69438659057617,92.7041251159668L95.69438659057617,79.77652511596679Q95.69438659057617,78.5608251159668,96.55118659057618,77.7040251159668Z" fill-rule="evenodd" fill="url(#master_svg7__17)" fill-opacity="1"/></g></g></g></g></svg>