<svg xmlns="http://www.w3.org/2000/svg" xmlns:xlink="http://www.w3.org/1999/xlink" fill="none" version="1.1" width="143.3828125" height="142.10879516601562" viewBox="0 0 143.3828125 142.10879516601562"><defs><linearGradient x1="0.5" y1="-3.0616171314629196e-17" x2="0.5" y2="1" id="master_svg0__27"><stop offset="0%" stop-color="#BC94FF" stop-opacity="1"/><stop offset="100%" stop-color="#9F66FF" stop-opacity="1"/></linearGradient><filter id="master_svg1_0_299" filterUnits="objectBoundingBox" color-interpolation-filters="sRGB" x="-48" y="-48" width="139.65059280395508" height="141.4523048400879"><feFlood flood-opacity="0" result="BackgroundImageFix"/><feBlend mode="normal" in="SourceGraphic" in2="BackgroundImageFix" result="shape"/><feGaussianBlur stdDeviation="12" result="effect1_foregroundBlur"/></filter><filter id="master_svg2_0_301" filterUnits="objectBoundingBox" color-interpolation-filters="sRGB" x="0" y="0" width="75.70333862304688" height="74.15840148925781"><feFlood flood-opacity="0" result="BackgroundImageFix"/><feBlend mode="normal" in="SourceGraphic" in2="BackgroundImageFix" result="shape"/><feGaussianBlur in="BackgroundImage" stdDeviation="12"/><feComposite in2="SourceAlpha" operator="in" result="effect1_foregroundBlur"/><feBlend mode="normal" in="SourceGraphic" in2="effect1_foregroundBlur" result="shape"/></filter><linearGradient x1="0.15918369591236115" y1="0.11650128662586212" x2="0.795918345451355" y2="0.907483696937561" id="master_svg3__17"><stop offset="0%" stop-color="#FFFFFF" stop-opacity="0.25"/><stop offset="100%" stop-color="#FFFFFF" stop-opacity="0"/></linearGradient><filter id="master_svg4_0_303" filterUnits="objectBoundingBox" color-interpolation-filters="sRGB" x="-15" y="-15" width="60.53727149963379" height="72.95970153808594"><feFlood flood-opacity="0" result="BackgroundImageFix"/><feColorMatrix in="SourceAlpha" type="matrix" values="0 0 0 0 0 0 0 0 0 0 0 0 0 0 0 0 0 0 127 0"/><feOffset dy="5" dx="5"/><feGaussianBlur stdDeviation="5"/><feColorMatrix type="matrix" values="0 0 0 0 0.5773564577102661 0 0 0 0 0.359375 0 0 0 0 0.9375 0 0 0 0.5 0"/><feBlend mode="normal" in2="BackgroundImageFix" result="effect1_dropShadow"/><feBlend mode="normal" in="SourceGraphic" in2="effect1_dropShadow" result="shape"/><feGaussianBlur in="BackgroundImage" stdDeviation="7.5"/><feComposite in2="SourceAlpha" operator="in" result="effect2_foregroundBlur"/><feBlend mode="normal" in="SourceGraphic" in2="effect2_foregroundBlur" result="shape"/></filter><linearGradient x1="0.9291006326675415" y1="0.18057993054389954" x2="-0.14811751246452332" y2="1.3421075344085693" id="master_svg5__35"><stop offset="0%" stop-color="#FFFFFF" stop-opacity="1"/><stop offset="100%" stop-color="#FFFFFF" stop-opacity="0.20000000298023224"/></linearGradient><linearGradient x1="0.15918369591236115" y1="0.11650128662586212" x2="0.795918345451355" y2="0.907483696937561" id="master_svg6__17"><stop offset="0%" stop-color="#FFFFFF" stop-opacity="0.25"/><stop offset="100%" stop-color="#FFFFFF" stop-opacity="0"/></linearGradient></defs><g><g><g><g transform="matrix(0.9672355055809021,-0.2538808286190033,0.2638393044471741,0.9645666480064392,-12.081108823350974,10.242043810528799)"><path d="M80.941202734375,49.93400001525879C80.941202734375,49.93400001525879,52.181202734375,49.93400001525879,52.181202734375,49.93400001525879C40.935972734375,49.93400001525879,33.372802734375,57.68917001525879,33.372802734375,69.22420001525879C33.372802734375,69.22420001525879,33.372802734375,95.84590001525879,33.372802734375,95.84590001525879C33.372802734375,107.34830001525879,40.935972734375,115.10350001525879,52.181202734375,115.10350001525879C52.181202734375,115.10350001525879,80.941202734375,115.10350001525879,80.941202734375,115.10350001525879C92.18640273437501,115.10350001525879,99.716402734375,107.34830001525879,99.716402734375,95.84590001525879C99.716402734375,95.84590001525879,99.716402734375,69.22420001525879,99.716402734375,69.22420001525879C99.716402734375,57.68917001525879,92.18640273437501,49.93400001525879,80.941202734375,49.93400001525879Z" fill="url(#master_svg0__27)" fill-opacity="1"/></g><g transform="matrix(-0.258819043636322,-0.9659258127212524,0.9659258127212524,-0.258819043636322,-24.954091761997006,176.88801504297726)" style="opacity:0.5;" filter="url(#master_svg1_0_299)"><rect x="55.388427734375" y="98.01798248291016" width="43.65059280395508" height="45.45230484008789" rx="13" fill="#8237FF" fill-opacity="1"/></g></g><g><g filter="url(#master_svg2_0_301)"><path d="M109.948977734375,54.93243408203125C109.948977734375,54.93243408203125,77.131577734375,54.93243408203125,77.131577734375,54.93243408203125C64.299857734375,54.93243408203125,55.669677734375,63.75728408203125,55.669677734375,76.88333408203125C55.669677734375,76.88333408203125,55.669677734375,107.17703408203124,55.669677734375,107.17703408203124C55.669677734375,120.26593408203125,64.299857734375,129.09083408203125,77.131577734375,129.09083408203125C77.131577734375,129.09083408203125,109.948977734375,129.09083408203125,109.948977734375,129.09083408203125C122.780677734375,129.09083408203125,131.372977734375,120.26593408203125,131.372977734375,107.17703408203124C131.372977734375,107.17703408203124,131.372977734375,76.88333408203125,131.372977734375,76.88333408203125C131.372977734375,63.75728408203125,122.780677734375,54.93243408203125,109.948977734375,54.93243408203125C109.948977734375,54.93243408203125,109.948977734375,54.93243408203125,109.948977734375,54.93243408203125Z" fill="#BA90FF" fill-opacity="0.3499999940395355"/><path d="M54.669677734375,76.88333408203125L54.669677734375,107.17703408203124Q54.669677734375,112.21243408203125,56.283361734375,116.47683408203125Q57.872047734375,120.67523408203125,60.874147734375,123.74183408203125Q63.879417734375,126.81173408203125,67.997577734375,128.43753408203125Q72.185077734375,130.09083408203125,77.131577734375,130.09083408203125L109.948977734375,130.09083408203125Q114.895277734375,130.09083408203125,119.07747773437501,128.43743408203125Q123.189777734375,126.81163408203125,126.188377734375,123.74093408203125Q129.182177734375,120.67503408203125,130.765577734375,116.47573408203125Q132.372977734375,112.21313408203125,132.372977734375,107.17703408203124L132.372977734375,76.88333408203125Q132.372977734375,71.83423408203126,130.765877734375,67.56373408203125Q129.182777734375,63.35717408203125,126.188777734375,60.28739408203125Q123.190677734375,57.21349408203125,119.077677734375,55.58652108203125Q114.896177734375,53.93243408203125,109.948977734375,53.93243408203125L77.131577734375,53.93243408203125Q72.184177734375,53.93243408203125,67.997377734375,55.58634908203125Q63.878547734375,57.213404082031246,60.873727734375,60.28649408203125Q57.871487734375,63.35694408203125,56.283131734375,67.56263408203125Q54.669677734375,71.83483408203125,54.669677734375,76.88333408203125ZM77.131577734375,54.93243408203125L109.948977734375,54.93243408203125C122.780677734375,54.93243408203125,131.372977734375,63.75728408203125,131.372977734375,76.88333408203125L131.372977734375,107.17703408203124C131.372977734375,120.26593408203125,122.780677734375,129.09083408203125,109.948977734375,129.09083408203125L77.131577734375,129.09083408203125C64.299857734375,129.09083408203125,55.669677734375,120.26593408203125,55.669677734375,107.17703408203124L55.669677734375,76.88333408203125C55.669677734375,63.75728408203125,64.299857734375,54.93243408203125,77.131577734375,54.93243408203125Z" fill-rule="evenodd" fill="url(#master_svg3__17)" fill-opacity="1"/></g><g filter="url(#master_svg4_0_303)"><path d="M105.592541796875,105.76650595703126C106.050541796875,106.02970595703124,106.550141796875,106.15580595703125,107.046041796875,106.15580595703125C108.011241796875,106.15580595703125,108.953741796875,105.67000595703125,109.487441796875,104.79870595703125C109.75384179687501,104.36040595703125,109.883041796875,103.87960595703125,109.887441796875,103.40390595703124C109.887641796875,103.38380595703126,109.887641796875,103.36370595703124,109.887341796875,103.34350595703125C109.875841796875,102.40740595703124,109.382341796875,101.49870595703125,108.503241796875,100.98210595703125C108.503241796875,100.98210595703125,95.028091796875,93.11020595703125,95.028091796875,93.11020595703125C95.028091796875,93.11020595703125,95.028091796875,75.97704595703125,95.028091796875,75.97704595703125C95.028091796875,74.44196595703124,93.756271796875,73.19610595703125,92.189221796875,73.19610595703125C90.622161796875,73.19610595703125,89.350341796875,74.44196595703124,89.350341796875,75.97704595703125C89.350341796875,75.97704595703125,89.350341796875,94.68970595703125,89.350341796875,94.68970595703125C89.350341796875,94.68970595703125,89.350341796875,94.69090595703125,89.350341796875,94.69090595703125C89.350341796875,95.66980595703126,89.876479796875,96.57820595703126,90.731931796875,97.08250595703124C90.731931796875,97.08250595703124,105.592541796875,105.76650595703126,105.592541796875,105.76650595703126C105.592541796875,105.76650595703126,105.592541796875,105.76650595703126,105.592541796875,105.76650595703126Z" fill-rule="evenodd" fill="url(#master_svg5__35)" fill-opacity="1"/><path d="M108.503241796875,100.98210595703125L95.028091796875,93.11020595703125L95.028091796875,75.97704595703125C95.028091796875,74.44196595703124,93.756271796875,73.19610595703125,92.189221796875,73.19610595703125C90.622161796875,73.19610595703125,89.350341796875,74.44196595703124,89.350341796875,75.97704595703125L89.350341796875,94.69090595703125C89.350341796875,95.66980595703126,89.876479796875,96.57820595703126,90.731931796875,97.08250595703124L105.592541796875,105.76650595703126C106.050541796875,106.02970595703124,106.550141796875,106.15580595703125,107.046041796875,106.15580595703125C108.011241796875,106.15580595703125,108.953741796875,105.67000595703125,109.487441796875,104.79870595703125C109.75384179687501,104.36040595703125,109.883041796875,103.87960595703125,109.887441796875,103.40390595703124C109.887641796875,103.38380595703126,109.887641796875,103.36370595703124,109.887341796875,103.34350595703125C109.875841796875,102.40740595703124,109.382341796875,101.49870595703125,108.503241796875,100.98210595703125ZM105.791841796875,105.41970595703125L105.794341796875,105.42110595703124Q106.378141796875,105.75580595703124,107.046041796875,105.75580595703124Q108.432141796875,105.75580595703124,109.14634179687499,104.58980595703125Q109.481541796875,104.03830595703124,109.487441796875,103.40020595703125Q109.487741796875,103.37270595703126,109.487341796875,103.34940595703125Q109.471041796875,102.01470595703125,108.300541796875,101.32700595703125L94.628091796875,93.33980595703125L94.628091796875,75.97704595703125Q94.628091796875,74.99384595703125,93.916391796875,74.29666595703125Q93.201231796875,73.59610595703126,92.189221796875,73.59610595703126Q91.177201796875,73.59610595703126,90.462041796875,74.29666595703125Q89.750341796875,74.99384595703125,89.750341796875,75.97704595703125L89.750341796875,94.68970595703125L89.750341796875,94.69090595703125Q89.750341796875,96.03950595703125,90.935071796875,96.73790595703124L105.791841796875,105.41970595703125Z" fill-rule="evenodd" fill="url(#master_svg6__17)" fill-opacity="1"/></g></g></g></g></svg>