<svg xmlns="http://www.w3.org/2000/svg" xmlns:xlink="http://www.w3.org/1999/xlink" fill="none" version="1.1" width="48" height="48" viewBox="0 0 48 48"><defs><clipPath id="master_svg0_21_004"><rect x="0" y="0" width="48" height="48" rx="10"/></clipPath></defs><g clip-path="url(#master_svg0_21_004)"><g><path d="M22,42L7,42C4.25,42,2,39.75,2,37L2,12C2,9.25,4.25,7,7,7L22,7C24.75,7,27,9.25,27,12L27,37C27,39.75,24.75,42,22,42Z" fill="#2953FF" fill-opacity="1"/></g><g><path d="M42,42L27,42C24.25,42,22,39.75,22,37L22,12C22,9.25,24.25,7,27,7L42,7C44.75,7,47,9.25,47,12L47,37C47,39.75,44.75,42,42,42Z" fill="#FA5151" fill-opacity="1"/></g><g><path d="M24.5,42C22.5,42,20.875,40.375,20.875,38.375L20.875,10.625C20.875,8.625,22.5,7,24.5,7C26.5,7,28.125,8.625,28.125,10.625L28.125,38.375C28.125,40.375,26.5,42,24.5,42Z" fill="#FFFFFF" fill-opacity="1"/></g></g></svg>