<svg xmlns="http://www.w3.org/2000/svg" xmlns:xlink="http://www.w3.org/1999/xlink" fill="none" version="1.1" width="188" height="64" viewBox="0 0 188 64"><defs><clipPath id="master_svg0_122_72"><rect x="0" y="0" width="188" height="64" rx="0"/></clipPath><linearGradient x1="43" y1="32.5" x2="183" y2="32.5" gradientUnits="userSpaceOnUse" id="master_svg1_122_1186"><stop offset="0%" stop-color="#FA5151" stop-opacity="1"/><stop offset="54.28571701049805%" stop-color="#3662EC" stop-opacity="1"/><stop offset="100%" stop-color="#FA5151" stop-opacity="1"/></linearGradient></defs><g clip-path="url(#master_svg0_122_72)"><g><path d="M56.055,48.22Q53.64,47.695,52.6075,46.5925Q51.575,45.49,51.575,44.125Q51.575,43.355,51.89,42.55Q52.730000000000004,40.415,54.34,38.28Q55.95,36.144999999999996,58.365,33.730000000000004Q56.019999999999996,34.78,53.885,35.620000000000005Q53.325,35.83,52.94,35.83Q52.555,35.83,52.275,35.620000000000005Q51.12,34.885000000000005,50.245,32.96Q50.21,32.89,50.21,32.785Q50.21,32.47,50.84,32.364999999999995Q52.519999999999996,32.260000000000005,54.6025,31.7Q56.685,31.14,59.135000000000005,30.335L60.15,30.02Q60.535,29.95,60.92,29.74Q61.235,28.2,61.445,26.555Q58.575,26.905,57.105000000000004,27.115L57.175,30.195Q57.175,30.335,57.035,30.4225Q56.894999999999996,30.51,56.615,30.51Q56.16,30.51,55.775,30.335Q55.39,30.16,54.795,29.775Q54.305,29.53,54.06,28.9Q53.815,28.27,53.815,27.64Q51.12,28.165,50.175,28.48Q49.894999999999996,28.55,49.755,28.55Q48.915,28.55,47.917500000000004,27.7625Q46.92,26.975,46.465,25.82Q46.395,25.645,46.395,25.4Q46.395,25.119999999999997,46.57,24.98Q46.745,24.84,46.955,24.84Q48.32,24.84,53.15,24.175Q52.24,20.78,51.33,19.695Q51.225,19.52,51.225,19.415Q51.225,19.17,51.5225,18.9775Q51.82,18.785,52.1,18.855Q53.815,18.995,54.935,19.310000000000002Q56.055,19.625,56.51,20.255000000000003Q56.965,20.744999999999997,56.965,22.39L57,23.58Q59.415,23.23,61.864999999999995,22.775Q62.004999999999995,20.884999999999998,62.004999999999995,20.325Q62.004999999999995,19.205,61.83,18.68Q61.760000000000005,18.4,61.760000000000005,18.259999999999998Q61.760000000000005,17.91,61.9525,17.6825Q62.144999999999996,17.455,62.32,17.490000000000002Q63.825,17.42,65.3475,17.927500000000002Q66.87,18.435,67.5,19.275Q67.64,19.45,67.64,19.73Q67.64,20.185000000000002,67.3075,20.7625Q66.975,21.34,66.905,21.48L66.66,21.97Q67.71000000000001,21.795,68.83,21.585Q70.545,21.235,70.965,21.235Q71.245,21.235,71.49,21.34Q72.225,21.585,72.8025,22.5125Q73.38,23.439999999999998,73.975,24.665Q74.08,24.875,74.08,25.085Q74.08,25.68,73.03,25.68Q69.775,25.68,64.525,26.205Q63.405,28.305,62.635000000000005,29.32L63.09,29.565Q65.155,30.825,66.065,32.364999999999995Q66.17,32.504999999999995,66.17,32.715Q66.17,33.1,65.785,33.5375Q65.4,33.975,64.805,34.254999999999995Q61.935,35.55,59.555,37.685Q57.175,39.82,56.335,42.165Q56.16,42.620000000000005,56.16,42.97Q56.16,44.16,57.735,44.335Q58.61,44.475,60.5,44.475Q62.425,44.475,64.42,44.3Q66.41499999999999,44.125,67.28999999999999,43.88Q68.58500000000001,43.39,68.865,43.04Q69.705,42.06,70.3175,40.292500000000004Q70.93,38.525,71.105,36.915Q71.14,36.739999999999995,71.455,36.739999999999995Q71.77,36.739999999999995,71.77,36.915L72.08500000000001,38.35Q72.47,40.275,72.8725,41.4825Q73.275,42.69,74.045,43.495Q74.605,44.055,74.605,44.755Q74.605,45.385,74.115,45.98Q73.625,46.575,72.785,46.925Q70.78999999999999,47.8,67.78,48.2725Q64.77,48.745,61.655,48.745Q58.365,48.745,56.055,48.22ZM77.965,35.025Q77.78999999999999,35.025,77.65,34.85Q77.50999999999999,34.675,77.65,34.535Q81.185,31.21,83.89750000000001,26.59Q86.61,21.97,87.13499999999999,17.14Q87.13499999999999,16.86,87.45,16.86Q88.57,16.86,89.83,17.5425Q91.09,18.225,91.50999999999999,19.03Q91.65,19.275,91.65,19.625Q91.65,20.535,90.88,22.005000000000003Q91.86,21.935000000000002,93.12,22.25Q94.38,22.564999999999998,95.11500000000001,23.09Q95.815,23.545,96.16499999999999,24.21Q96.515,24.875,96.515,25.61Q96.515,26.415,96.095,27.1675Q95.675,27.92,94.94,28.34Q94.695,28.48,94.41499999999999,28.48Q93.89,28.48,93.68,28.06Q92.56,25.96,90.285,23.125Q88.43,26.555,85.805,29.39L85.84,29.39Q87.555,29.215,89.13,28.9525Q90.705,28.69,91.3,28.41Q91.755,28.165,92.035,28.165Q92.35,28.165,92.77000000000001,28.41Q93.36500000000001,28.725,94.13499999999999,29.32Q94.905,29.915,95.22,30.37Q95.325,30.51,95.325,30.755Q95.325,31,95.11500000000001,31.56Q94.87,32.085,94.66,33.17Q94.52000000000001,34.114999999999995,94.52000000000001,34.185Q94.41499999999999,35.2,94.275,35.8825Q94.13499999999999,36.565,93.89,36.985Q93.08500000000001,38.35,92.245,38.35Q91.825,38.35,91.33500000000001,37.93Q89.795,36.32,88.11500000000001,35.305Q88.00999999999999,35.235,88.0275,35.095Q88.045,34.955,88.11500000000001,34.955Q88.78,34.885000000000005,89.2875,34.885000000000005Q89.795,34.885000000000005,90.03999999999999,34.85Q90.32,34.815,90.6,34.675Q90.88,34.535,90.95,34.36Q91.055,33.975,91.055,32.19Q91.055,31.56,90.95,31.4025Q90.845,31.245,90.32,31.28L87.66,31.665Q87.52000000000001,32.295,87.52000000000001,33.345L87.52000000000001,35.235L87.52000000000001,40.59Q87.52000000000001,41.815,87.95750000000001,42.3575Q88.39500000000001,42.9,89.515,43.04Q90.215,43.11,90.63499999999999,43.11Q92.07,43.11,93.25999999999999,42.795Q94.03,42.55,94.38,41.675Q94.72999999999999,40.8,95.00999999999999,39.225Q95.15,38.385000000000005,95.255,37.965Q95.325,37.754999999999995,95.5,37.754999999999995Q95.78,37.754999999999995,95.815,38.175Q96.025,39.435,96.41,40.205Q96.795,40.975,97.91499999999999,42.445Q98.405,43.145,98.405,43.845Q98.405,44.65,97.79249999999999,45.315Q97.18,45.98,96.2,46.295Q95.15,46.645,93.68,46.8375Q92.21000000000001,47.03,90.74000000000001,47.03Q89.725,47.03,88.815,46.925Q86.575,46.68,85.525,46.1725Q84.475,45.665,84.07249999999999,44.44Q83.67,43.215,83.67,40.66Q83.67,40.135000000000005,83.74000000000001,38.455Q83.81,36.285,83.81,35.025Q83.81,33.03,83.63499999999999,32.015L83.565,31.525Q80.94,33.730000000000004,78.035,35.025L77.965,35.025ZM98.125,25.68Q98.02000000000001,25.4,98.02000000000001,25.189999999999998Q98.02000000000001,24.945,98.125,24.77Q98.22999999999999,24.595,98.44,24.560000000000002Q98.685,24.525,99.175,24.525Q100.19,24.525,100.85499999999999,24.84Q101.52000000000001,25.155,102.28999999999999,25.68Q102.71000000000001,26.1,102.71000000000001,26.695Q102.71000000000001,26.939999999999998,102.60499999999999,27.255Q102.535,27.535,102.465,29.075Q102.43,30.23,102.43,32.085Q102.43,34.885000000000005,102.325,36.425Q102.185,37.614999999999995,101.7475,38.4025Q101.31,39.19,100.75,39.19Q100.47,39.19,100.08500000000001,38.875Q98.055,37.125,98.195,35.585Q98.50999999999999,31.735,98.50999999999999,29.46Q98.50999999999999,28.375,98.475,27.85Q98.475,27.71,98.44,27.0625Q98.405,26.415,98.125,25.68ZM100.19,44.93Q99.91,44.825,99.91,44.545Q99.91,44.405,100.05,44.3Q100.19,44.195,100.47,44.23Q102.22,44.475,102.955,44.37Q103.34,44.265,103.62,43.9675Q103.9,43.67,104.075,42.935Q104.32,41.605000000000004,104.32,34.185Q104.32,26.695,104.14500000000001,22.215Q104.11,21.060000000000002,103.9875,20.3425Q103.86500000000001,19.625,103.62,18.785Q103.47999999999999,18.4,103.47999999999999,18.085Q103.47999999999999,17.14,104.91499999999999,17.315Q105.33500000000001,17.315,106.28,17.665Q107.225,18.015,108.1175,18.54Q109.01,19.064999999999998,109.325,19.66Q109.5,19.905,109.5,20.36Q109.5,20.78,109.255,21.515Q108.975,22.39,108.94,23.125Q108.905,23.93,108.905,26.240000000000002Q108.905,32.085,109.22,43.74Q109.255,45.42,109.01,46.4175Q108.765,47.415,108.1,48.185Q107.435,48.955,106.035,49.76Q105.61500000000001,50.04,105.195,50.04Q104.39,50.04,103.795,48.5Q103.375,47.45,102.36,46.4875Q101.345,45.525,100.19,44.93ZM121.715,31Q121.12,31.175,120.735,31.175Q119.475,31.175,118.32,30.3Q117.725,29.845,117.41,29.3725Q117.095,28.9,117.095,28.55Q117.095,28.27,117.305,28.0775Q117.515,27.885,117.9,27.85Q121.4,27.5,128.3125,26.275Q135.225,25.05,138.095,24.105Q138.82999999999998,23.86,139.32,23.86Q139.81,23.86,140.16,24.105Q141.35,24.84,142.29500000000002,25.89Q142.68,26.345,142.68,26.905Q142.68,27.43,142.365,27.85Q142.12,28.2,141.8225,28.2875Q141.525,28.375,140.825,28.375Q138.58499999999998,28.375,135.54000000000002,28.655Q136.625,29.495,137.29000000000002,30.44Q137.39499999999998,30.58,137.39499999999998,30.825Q137.39499999999998,31.105,136.975,31.945Q136.87,32.19,136.73000000000002,32.47Q136.59,32.75,136.45,33.135000000000005Q134.945,36.739999999999995,133.54500000000002,38.945Q136.765,41.955,139.425,43.775Q141.245,45.07,143.152,45.9275Q145.06,46.785,145.235,46.855Q145.655,47.065,145.655,47.31Q145.655,47.555,145.34,47.765Q144.325,48.185,142.52249999999998,48.5525Q140.72,48.92,140.475,48.955L139.39,49.165Q138.655,49.305,137.885,49.305Q136.485,49.305,135.715,48.64Q132.81,45.945,130.39499999999998,42.97Q125.11,48.395,115.94,49.83L115.835,49.83Q115.59,49.83,115.4675,49.585Q115.345,49.34,115.555,49.235Q119.405,47.415,122.4675,45.175Q125.53,42.935,127.91,39.68Q125.145,35.795,122.485,30.86L122.415,30.755L121.715,31ZM125.32,18.259999999999998Q125.32,18.225,125.25,18.0675Q125.18,17.91,125.18,17.77Q125.18,17.315,125.845,17.21Q126.16,17.175,126.825,17.175Q129.485,17.175,130.92000000000002,18.015Q132.04000000000002,18.61,132.6,19.45Q133.16,20.29,133.16,21.235Q133.16,22.215,132.58249999999998,23.1425Q132.005,24.07,131.025,24.630000000000003Q130.60500000000002,24.875,130.22,24.875Q129.695,24.875,129.485,24.490000000000002Q128.715,23.02,127.5075,21.2175Q126.3,19.415,125.32,18.259999999999998ZM125.635,29.95Q127.56,32.715,130.29000000000002,35.69Q131.235,33.835,131.97,31.525Q132.35500000000002,30.44,132.425,28.97Q128.82,29.355,125.635,29.95ZM148.875,41.885000000000005Q148.56,41.885000000000005,148.56,41.57Q148.56,41.29,148.875,40.975Q150.73000000000002,39.33,152.62,36.67Q154.51,34.010000000000005,155.91,30.755L155.91,30.51Q155.07,30.755,154.33499999999998,31.14Q154.125,31.245,153.845,31.2975Q153.565,31.35,153.285,31.35Q153.075,31.35,152.935,31.28Q152.445,31.07,151.85,30.3875Q151.255,29.705,150.83499999999998,28.865Q150.765,28.725,150.765,28.515Q150.765,28.13,151.36,28.13Q152.305,28.13,154.51,27.815L155.91,27.57L155.84,22.145Q155.84,20.22,155.315,18.645Q155.20999999999998,18.33,155.20999999999998,18.05Q155.20999999999998,17.105,156.26,17.105Q157.345,17.105,158.39499999999998,17.6125Q159.445,18.12,159.9,18.645Q160.285,19.134999999999998,160.285,19.835Q160.285,20.08,160.11,21.060000000000002Q159.97,21.55,159.97,21.759999999999998Q159.82999999999998,22.845,159.76,26.73Q161.09,26.415,161.33499999999998,26.345Q161.44,26.310000000000002,161.86,26.1875Q162.28,26.064999999999998,162.66500000000002,26.064999999999998Q163.05,26.064999999999998,163.225,26.205Q163.785,26.555,164.292,27.115Q164.8,27.675,165.04500000000002,28.305Q165.22,28.725,164.923,28.9525Q164.625,29.18,164.24,29.18Q162.35,29.18,160.845,29.46L159.725,29.67L159.69,32.644999999999996Q161.16,32.89,162.28,33.485Q162.91,33.8,163.4,34.36Q163.89,34.92,163.89,35.445Q163.89,36.144999999999996,163.418,36.7225Q162.945,37.3,162.35,37.3Q162.035,37.3,161.72,37.09Q161.3,36.845,160.845,36.3375Q160.39,35.83,159.69,34.955Q159.76,44.37,159.9,46.4Q159.97,47.45,159.58499999999998,48.2025Q159.2,48.955,158.5,48.955Q157.83499999999998,48.955,157.293,48.5175Q156.75,48.08,156.365,47.52Q155.98000000000002,46.96,155.805,46.61Q155.595,46.26,155.595,45.735Q155.595,45.56,155.66500000000002,45.14Q155.735,44.93,155.893,44.3525Q156.05,43.775,156.05,43.285L155.98000000000002,36.845Q154.51,38.629999999999995,152.848,39.7675Q151.185,40.905,149.155,41.815L148.875,41.885000000000005ZM161.89499999999998,44.58Q161.72,44.16,161.72,43.985Q161.72,43.355,162.7,43.355Q164.975,43.355,168.07299999999998,43.0225Q171.17,42.69,173.515,42.34Q174.075,42.269999999999996,174.215,42.269999999999996Q174.845,42.269999999999996,175.16,42.585Q175.37,40.94,175.405,39.085Q173.76,39.05,170.75,39.4875Q167.74,39.925,166.48000000000002,40.31Q166.025,40.415,165.412,40.065Q164.8,39.715,164.345,39.067499999999995Q163.89,38.42,163.89,37.72Q163.89,36.95,164.73000000000002,36.985Q165.95499999999998,37.055,169.122,36.635000000000005Q172.29,36.215,173.515,35.83Q173.795,35.725,174.075,35.725Q174.46,35.725,174.845,35.8825Q175.23,36.04,175.475,36.285Q175.475,35.515,175.405,34.045Q175.37,33.275,175.247,33.0475Q175.125,32.82,174.6,32.925Q172.78,33.17,169.805,33.7475Q166.82999999999998,34.325,164.94,34.745000000000005Q164.41500000000002,34.85,163.838,34.465Q163.26,34.08,162.805,33.45Q162.35,32.82,162.20999999999998,32.33Q162.175,32.260000000000005,162.175,32.085Q162.175,31.595,163.015,31.56Q165.04500000000002,31.385,168.93,30.755Q168.93,29.74,168.982,28.4975Q169.035,27.255,169.035,26.695Q169.10500000000002,23.895,169.10500000000002,22.810000000000002L169.10500000000002,21.689999999999998Q169.035,19.835,168.57999999999998,18.47Q168.475,18.155,168.475,17.945Q168.475,17.175,169.7,17.28Q171.065,17.42,171.835,17.7Q172.605,17.98,173.165,18.47Q173.515,18.75,173.655,19.03Q173.795,19.310000000000002,173.795,19.8Q173.795,19.975,173.725,20.675Q173.48,22.355,173.2,26.345Q173.935,25.119999999999997,174.372,23.825Q174.81,22.53,174.845,21.655Q174.88,20.990000000000002,175.02,20.7625Q175.16,20.535,175.72,20.535Q176.84,20.535,177.803,21.0075Q178.765,21.48,179.43,22.18Q179.71,22.53,179.71,22.880000000000003Q179.71,23.369999999999997,179.22,23.825Q178.975,24.035,178.38,24.7Q177.365,25.855,176.21,26.817500000000003Q175.055,27.78,173.095,28.725L173.025,30.09Q175.37,29.635,176.14,29.285Q176.84,28.97,177.155,28.97Q177.4,28.97,177.75,29.145Q178.415,29.495,179.325,30.195Q180.235,30.895,180.62,31.455Q180.76,31.595,180.76,31.875Q180.76,32.260000000000005,180.445,32.96Q180.235,33.379999999999995,180.147,33.7825Q180.06,34.185,180.06,35.2Q180.06,39.47,179.5,42.6025Q178.94,45.735,178.205,46.575Q177.12,47.87,176.35,47.87Q175.825,47.87,175.3,47.24Q174.705,46.54,174.04,46.05Q172.535,46.015,171.083,46.1725Q169.63,46.33,167.25,46.645L164.975,46.96Q163.155,47.17,161.89499999999998,44.58ZM162.805,23.509999999999998Q162.805,23.475,162.753,23.3525Q162.7,23.23,162.7,23.125Q162.7,22.775,163.47,22.775Q164.31,22.775,165.22,23.09Q166.13,23.405,166.865,23.93Q168.3,24.98,168.3,26.310000000000002Q168.3,27.08,167.792,27.7975Q167.285,28.515,166.445,28.9Q166.235,28.97,166.16500000000002,28.97Q165.92000000000002,28.97,165.692,28.795Q165.465,28.62,165.325,28.445Q164.51999999999998,27.115,163.54000000000002,25.015L162.805,23.509999999999998Z" fill="url(#master_svg1_122_1186)" fill-opacity="1"/></g><g><path d="M15.5448,49.1056C20.0838,48.4944,25.4998,45.6259,30.171,40.955C31.2751,39.850899999999996,32.2785,38.705,33.1751,37.5394C32.0188,46.3981,27.551,53,22.216,53C19.7185,53,17.4113,51.5531,15.5448,49.1056ZM11.25727,28.4606C12.41321,19.601869999999998,16.880699999999997,13,22.216,13C24.7135,13,27.0207,14.44687,28.8873,16.89437C24.3482,17.50563,18.932299999999998,20.37406,14.261,25.045C13.18689,26.1174,12.18344,27.2584,11.25696,28.4606L11.25727,28.4606ZM4.93227,35.2753C7.73133,38.9006,12.92352,42.1569,19.3041,43.8666C20.77,44.2606,22.2599,44.5591,23.7645,44.7603C15.5141,48.1884,7.5629,47.6203,4.895708,43C3.646957,40.8375,3.74602,38.1156,4.932583,35.2753L4.93227,35.2753ZM20.6676,21.23969C28.9179,17.81156,36.8692,18.37969,39.5363,23C40.7851,25.1625,40.686,27.8844,39.4995,30.7247C36.7007,27.0994,31.5088,23.8431,25.1276,22.13344C23.6618,21.739440000000002,22.172,21.4409,20.6676,21.23969ZM11.60352,19.16969C9.863520000000001,23.4063,9.63946,29.5309,11.34946,35.9116C11.741119999999999,37.378,12.22745,38.817499999999995,12.8054,40.2209C5.71164,34.79,2.22789,27.6203,4.895394,23C6.14414,20.8375,8.550709999999999,19.5625,11.60352,19.16969ZM31.6267,25.7791C38.7204,31.21,42.2042,38.3797,39.5367,43C38.2879,45.1625,35.881299999999996,46.4375,32.8285,46.8303C34.5685,42.5938,34.7926,36.4691,33.0826,30.0884C32.6909,28.622,32.2046,27.182499999999997,31.6267,25.7791ZM22.216,41.125C17.9013,41.125,14.4035,37.6272,14.4035,33.3125C14.4035,28.997799999999998,17.9013,25.5,22.216,25.5C26.5307,25.5,30.0285,28.997799999999998,30.0285,33.3125C30.0285,37.6272,26.5307,41.125,22.216,41.125ZM22.216,37.0625C24.287,37.0625,25.966,35.3834,25.966,33.3125C25.966,31.2416,24.287,29.5625,22.216,29.5625C20.1451,29.5625,18.466,31.2416,18.466,33.3125C18.466,35.3834,20.1451,37.0625,22.216,37.0625Z" fill="#FA5151" fill-opacity="1"/></g></g></svg>